<?xml version="1.0" encoding="UTF-8"?>
<svg version="1.1" xmlns="http://www.w3.org/2000/svg" width="715" height="271">
<path d="M0 0 C235.95 0 471.9 0 715 0 C715 89.43 715 178.86 715 271 C479.05 271 243.1 271 0 271 C0 181.57 0 92.14 0 0 Z " fill="#E8F5F3" transform="translate(0,0)"/>
<path d="M0 0 C0.65967773 0.19835449 1.31935547 0.39670898 1.99902344 0.60107422 C21.55871315 6.72017078 41.31949793 18.71569396 55.4921875 33.5625 C60.88931485 39.67971943 60.88931485 39.67971943 68.26953125 42.23046875 C71.58079142 41.67771683 71.58079142 41.67771683 74.8125 40.6875 C78.52977295 39.88573525 80.47390181 40.50356307 84.0625 41.625 C87.03003771 42.36781611 87.03003771 42.36781611 90 42 C93.37215598 39.51992406 95.9265296 36.67870512 98.6953125 33.5625 C117.45402495 12.61508011 148.60322924 -2.64612815 176.51953125 -4.1953125 C193.45970245 -4.82257137 209.64623831 0.18556692 223.125 10.625 C227.68717584 15.0775487 229.258534 19.79621709 230.56298828 25.95166016 C230.86785174 27.38060117 231.19625654 28.80463416 231.54248047 30.22412109 C234.48987436 42.3544502 235.35909441 54.24804602 235.3125 66.6875 C235.31004272 67.36809479 235.30758545 68.04868958 235.30505371 68.74990845 C235.2234352 81.37770264 234.29066306 93.06155106 231.1875 105.3125 C230.93935547 106.35728516 230.69121094 107.40207031 230.43554688 108.47851562 C228.07989563 117.90711465 225.10214987 122.81507066 216.9140625 128.26171875 C204.65251986 135.57590974 193.89433644 138.38417377 179.75 138.3125 C178.64479004 138.30903564 177.53958008 138.30557129 176.40087891 138.30200195 C165.82958443 138.1610825 156.59018438 136.6032885 147 132 C145.94683594 131.55785156 144.89367187 131.11570313 143.80859375 130.66015625 C126.25661372 123.16092529 111.57369641 112.57980773 97.375 99.98046875 C96.52796509 99.23434326 96.52796509 99.23434326 95.66381836 98.47314453 C94.54652675 97.4838947 93.43800791 96.48465482 92.33813477 95.47607422 C90.95382052 94.24429268 89.48214826 93.11213678 88 92 C85.12338844 92.6294242 85.12338844 92.6294242 83.203125 93.44140625 C78.17097061 94.71728937 70.67731104 94.33865552 66 92 C64.87407755 92.97810582 63.74934767 93.95758435 62.625 94.9375 C61.88636719 95.58074219 61.14773438 96.22398437 60.38671875 96.88671875 C58.82980913 98.26525902 57.28967576 99.66305222 55.76953125 101.08203125 C40.13615475 115.61557222 22.22245167 127.05512881 2 134 C0.80632812 134.41378906 -0.38734375 134.82757813 -1.6171875 135.25390625 C-10.03018978 137.76381441 -18.03881809 138.37677801 -26.8125 138.4375 C-27.85003418 138.44765137 -28.88756836 138.45780273 -29.95654297 138.46826172 C-40.49807348 138.348949 -49.57124928 135.5863306 -59 131 C-59 130.34 -59 129.68 -59 129 C-59.825 128.835 -60.65 128.67 -61.5 128.5 C-67.47890686 125.93761135 -71.64052821 122.07626697 -74.29296875 116.07421875 C-75.35641324 112.73720327 -76.21774836 109.41380692 -77 106 C-77.28617188 104.78957031 -77.57234375 103.57914062 -77.8671875 102.33203125 C-80.44962822 90.85861606 -81.30592522 79.85547486 -81.375 68.125 C-81.37956207 67.37921692 -81.38412415 66.63343384 -81.38882446 65.86505127 C-81.42605419 48.76724047 -80.56232935 28.40222013 -71.4375 13.4375 C-52.25489847 -5.74510153 -24.67139511 -7.4360856 0 0 Z " fill="#5C5E99" transform="translate(292,72)"/>
<path d="M0 0 C0 0.66 0 1.32 0 2 C0.67289062 2.07734375 1.34578125 2.1546875 2.0390625 2.234375 C5.91507692 3.23661619 9.02287441 5.13484218 12.375 7.25 C13.06964355 7.68602539 13.76428711 8.12205078 14.47998047 8.57128906 C22.28984147 13.62254831 29.22408308 19.65179208 36 26 C36.58177002 26.53141602 37.16354004 27.06283203 37.76293945 27.61035156 C39.24173744 29.00638181 40.62921549 30.4977704 42 32 C41.9380213 35.22289225 41.42666967 37.14666066 40 40 C39.87759865 41.76770327 39.82448847 43.54060462 39.8125 45.3125 C39.79832031 46.25738281 39.78414063 47.20226562 39.76953125 48.17578125 C39.85818961 51.03153431 39.85818961 51.03153431 41.07421875 53.60546875 C42 56 42 56 41.88671875 58.05859375 C34.83260136 73.50307102 5.58255969 88.15657239 -9 94 C-13.2978591 95.47341719 -17.61872292 96.79838392 -22 98 C-22.92800415 98.26369385 -22.92800415 98.26369385 -23.87475586 98.53271484 C-35.29557881 101.04385271 -49.54423586 100.09594814 -60 95 C-61.25683594 94.57267578 -61.25683594 94.57267578 -62.5390625 94.13671875 C-66.29754898 92.45335754 -68.33649689 90.72006591 -69.84814453 86.80126953 C-74.0092196 73.05853191 -75.23365883 59.35168663 -75.25 45.0625 C-75.25133942 44.37257965 -75.25267883 43.6826593 -75.25405884 42.97183228 C-75.24958427 32.34688438 -74.58094834 22.34802763 -72 12 C-71.81824219 11.00226563 -71.63648438 10.00453125 -71.44921875 8.9765625 C-70.39637034 4.09191886 -69.05054442 1.55256237 -64.9375 -1.375 C-44.27948744 -13.25167497 -20.69942099 -10.54498805 0 0 Z " fill="#E7F4F2" transform="translate(303,94)"/>
<path d="M0 0 C4.81545959 3.9656726 5.89531194 9.12227873 7.18359375 14.9453125 C7.43689453 16.01458984 7.43689453 16.01458984 7.6953125 17.10546875 C12.80838252 39.44998732 13.07749101 69.23038672 4.05859375 90.6953125 C1.20006521 93.62850409 -2.22549091 95.02053375 -5.94140625 96.6953125 C-6.73289062 97.1078125 -7.524375 97.5203125 -8.33984375 97.9453125 C-22.04326826 104.17021196 -40.27178553 101.40589397 -54.0078125 96.62890625 C-61.6408972 93.61348948 -68.79060531 89.69745432 -75.94140625 85.6953125 C-75.94140625 85.0353125 -75.94140625 84.3753125 -75.94140625 83.6953125 C-76.49828125 83.59992188 -77.05515625 83.50453125 -77.62890625 83.40625 C-87.26520657 80.44373875 -95.74963988 70.57718107 -102.94140625 63.6953125 C-103.73289062 63.03273438 -104.524375 62.37015625 -105.33984375 61.6875 C-106.94140625 59.6953125 -106.94140625 59.6953125 -106.859375 57.25 C-106.61832031 56.36570313 -106.37726563 55.48140625 -106.12890625 54.5703125 C-104.67950943 48.1929665 -104.63889455 42.1958127 -106.94140625 36.0078125 C-106.94140625 33.04614492 -106.20999285 32.55521611 -104.19140625 30.4453125 C-102.79630672 29.1712867 -101.37708801 27.92342582 -99.94140625 26.6953125 C-99.14089844 26.00308594 -98.34039062 25.31085938 -97.515625 24.59765625 C-85.4767052 14.48496362 -73.26190843 6.20246611 -58.94140625 -0.3046875 C-58.02488281 -0.72621094 -57.10835938 -1.14773437 -56.1640625 -1.58203125 C-37.87347323 -9.43779487 -17.38159661 -10.44608269 0 0 Z " fill="#E7F4F3" transform="translate(499.94140625,92.3046875)"/>
<path d="M0 0 C1.85485865 3.09143108 2.24247778 6.33684576 2.125 9.875 C0.90148704 12.83718928 -0.10634485 14.31838765 -2.6875 16.1875 C-6.28431692 17.31792818 -9.44398933 17.28386019 -13.0625 16.25 C-15.82329336 14.15560504 -16.71218318 12.11864693 -17.875 8.875 C-17.80600774 4.87344872 -17.50173707 2.69624168 -15.0625 -0.5 C-10.00924194 -4.25384885 -5.35525147 -3.21315088 0 0 Z " fill="#E2EFF0" transform="translate(376.875,132.125)"/>
</svg>
