<svg version="1.1" id="Layer_1" xmlns="http://www.w3.org/2000/svg" xmlns:xlink="http://www.w3.org/1999/xlink" x="0px" y="0px"
	 width="100%" viewBox="0 0 704 256" enable-background="new 0 0 704 256" xml:space="preserve">
<path fill="#000000" opacity="1.000000" stroke="none" 
	d="
M310.716583,200.841003 
	C296.810699,207.872940 282.376434,211.882385 267.229401,212.061310 
	C250.927521,212.253860 236.104889,207.246841 223.552826,196.436386 
	C221.356934,194.545181 219.801346,192.166504 218.901047,189.448563 
	C213.735138,173.853165 211.217361,157.751022 211.070389,141.398254 
	C210.918823,124.533104 213.369873,107.932762 218.612473,91.818863 
	C219.727310,88.392227 221.651291,85.635605 224.483109,83.357315 
	C242.122482,69.165840 262.208038,65.924797 283.823669,70.379089 
	C311.351471,76.051674 333.518555,91.300797 353.306793,110.439758 
	C356.619019,113.643311 359.378815,115.415894 364.162781,113.527939 
	C368.388184,111.860428 373.121521,112.161873 377.405609,113.854256 
	C380.753876,115.176956 382.917480,114.290657 385.310883,111.854408 
	C396.821259,100.137962 409.769073,90.224815 424.204010,82.393646 
	C443.345428,72.009125 463.510559,66.053604 485.580109,69.651810 
	C497.530579,71.600220 508.020996,76.757889 517.197998,84.604980 
	C519.264038,86.371635 520.483215,88.678604 521.327332,91.298943 
	C526.104980,106.130798 528.609192,121.401505 528.902283,136.895981 
	C529.253357,155.451416 526.708374,173.710114 520.299927,191.261673 
	C518.193848,197.029968 512.847168,199.618652 508.118073,202.523300 
	C488.677765,214.463730 467.979828,214.141708 447.002808,207.750931 
	C426.438416,201.485870 408.806030,190.024811 392.888123,175.776550 
	C392.267395,175.220932 391.646484,174.665146 391.038971,174.095230 
	C385.689819,169.077072 380.846130,163.047195 371.976379,167.182953 
	C370.094269,168.060532 367.065369,167.851196 365.117798,166.948959 
	C360.033722,164.593750 357.061310,166.792740 353.480316,170.206253 
	C340.780579,182.312012 327.040649,193.088928 310.716583,200.841003 
M234.431366,178.018692 
	C235.063446,181.475754 236.902222,184.030350 239.881744,185.945023 
	C252.870697,194.291870 266.937683,195.558426 281.580719,192.083160 
	C306.063873,186.272552 325.435455,171.915054 343.060089,154.740463 
	C344.838776,153.007172 345.028717,151.075653 344.181030,148.810150 
	C342.059662,143.140808 342.108246,137.349670 343.970184,131.676788 
	C344.876923,128.914093 344.374481,127.159332 342.324615,125.082939 
	C329.329987,111.920273 314.608368,101.195549 297.684509,93.743103 
	C282.581635,87.092529 266.862610,84.026619 250.691330,89.408752 
	C244.048218,91.619698 236.740112,93.852936 234.517487,101.967278 
	C227.653793,127.024986 227.405396,152.127106 234.431366,178.018692 
M423.833771,176.604980 
	C433.401306,183.125931 443.761597,188.031448 454.886688,191.149200 
	C470.558960,195.541290 485.807922,195.191742 500.017273,186.075333 
	C502.152069,184.705704 503.961273,183.199219 504.751190,180.552567 
	C512.716125,153.865234 512.832581,127.174377 505.084869,100.422226 
	C504.327484,97.807091 502.625275,96.153259 500.547028,94.709122 
	C488.707336,86.481941 475.359314,85.196304 461.843811,87.817871 
	C435.865753,92.856758 415.395538,107.784271 396.940399,125.911308 
	C395.488220,127.337654 394.971588,128.922882 395.693878,130.883194 
	C397.971436,137.064423 397.991882,143.260742 395.668030,149.428467 
	C394.774902,151.798843 395.483002,153.516144 397.307617,155.165924 
	C405.576752,162.642685 413.709198,170.278305 423.833771,176.604980 
M362.509979,135.237091 
	C362.089233,136.488647 361.460480,137.711807 361.285126,138.996841 
	C360.653625,143.625092 363.118225,147.392242 367.378082,148.566757 
	C371.853180,149.800629 376.157837,148.024658 377.950256,144.204956 
	C379.958588,139.925308 378.792236,135.331543 375.028412,132.696762 
	C371.358185,130.127502 367.348877,130.762421 362.509979,135.237091 
z"/>
</svg>