<svg version="1.1" id="Layer_1" xmlns="http://www.w3.org/2000/svg" xmlns:xlink="http://www.w3.org/1999/xlink" x="0px" y="0px"
	 width="100%" viewBox="0 0 540 431" enable-background="new 0 0 540 431" xml:space="preserve">
<path fill="#000101" opacity="1.000000" stroke="none" 
	d="
M209.000000,432.000000 
	C139.682236,432.000000 70.364479,432.000000 1.046713,432.000000 
	C1.031141,431.848938 1.001920,431.697876 1.001918,431.546814 
	C0.999991,288.079041 1.000000,144.611282 1.000000,1.000000 
	C90.931900,1.000000 180.863861,1.000000 270.795837,1.000000 
	C360.775635,1.000000 450.755432,1.000000 540.867615,1.000000 
	C540.867615,144.546021 540.867615,288.092224 540.867615,432.000000 
	C436.977631,432.000000 332.954865,432.000000 228.187225,431.757294 
	C221.239410,429.567963 215.067429,428.797485 209.000000,432.000000 
M392.226959,136.286209 
	C391.474304,136.832474 390.721680,137.378738 389.477386,138.094131 
	C389.282745,138.728333 389.088074,139.362518 388.326508,140.302200 
	C388.198822,140.474762 388.071136,140.647339 387.245972,140.925430 
	C380.833862,146.949173 374.421783,152.972916 367.545166,158.504791 
	C367.494476,157.047455 366.829315,155.127335 367.511322,154.221802 
	C369.367493,151.757248 371.793427,149.721756 374.555298,147.248703 
	C379.765625,141.517502 384.950104,135.762543 390.192139,130.060501 
	C398.770569,120.729210 407.376923,111.423500 415.993652,102.127556 
	C417.970337,99.995110 419.108032,97.919144 416.127655,95.466873 
	C413.604523,97.653999 411.084686,99.677307 408.748108,101.893852 
	C401.724335,108.556839 394.823730,115.350067 387.775208,121.986435 
	C382.263763,127.175629 376.603424,132.206696 370.428375,137.454910 
	C369.999603,138.302048 369.570831,139.149185 368.668030,140.174026 
	C368.444031,140.422928 368.220032,140.671844 367.298676,141.009048 
	C363.698395,143.116989 362.270416,148.398529 356.706726,147.502701 
	C357.240936,146.251251 357.508881,144.771683 358.353333,143.786026 
	C363.191895,138.138611 368.167328,132.608475 373.680359,126.962189 
	C374.100861,126.585709 374.521362,126.209236 375.518677,125.616455 
	C376.010345,124.743546 376.502014,123.870636 377.529602,122.909279 
	C377.675262,122.801712 377.820892,122.694138 378.514771,122.411674 
	C378.903412,121.577782 379.292053,120.743889 380.282379,119.564995 
	C389.384796,108.594025 401.490540,100.244690 408.715515,87.378113 
	C406.592163,87.107368 404.457886,86.967102 403.341064,87.965240 
	C398.564758,92.233910 394.118622,96.869629 389.494995,101.312073 
	C384.362823,106.243134 379.168610,111.109581 373.367859,116.038033 
	C372.958740,116.707512 372.549591,117.376984 371.556732,118.277054 
	C370.689575,118.813774 369.822418,119.350494 368.437500,120.053696 
	C368.205231,120.712784 367.972992,121.371872 367.111725,122.301140 
	C366.744110,122.571609 366.376495,122.842087 365.338867,123.193802 
	C359.674652,128.341568 354.865509,134.638718 346.925781,136.954926 
	C347.936707,134.086777 349.670166,131.990875 351.487396,129.970291 
	C353.610748,127.609360 355.807159,125.314148 358.514374,122.914711 
	C358.665863,122.812767 358.817322,122.710823 359.520966,122.456192 
	C359.903168,121.631531 360.285400,120.806877 361.315460,119.668953 
	C362.351532,118.883575 363.484711,118.197540 364.407013,117.295807 
	C368.664642,113.133232 372.886322,108.933159 377.078461,104.704498 
	C384.000824,97.721901 390.914978,90.730736 397.778839,83.690811 
	C399.761627,81.657181 400.788269,79.434021 397.809357,77.034683 
	C394.899170,79.360222 391.963226,81.547096 389.206970,83.940872 
	C382.803009,89.502747 376.514435,95.197304 370.123810,100.774757 
	C365.443909,104.859154 360.676117,108.842850 355.416077,113.032227 
	C355.160339,113.697914 354.904602,114.363602 354.047577,115.285492 
	C353.700104,115.548355 353.352600,115.811218 352.418732,116.090614 
	C352.071198,116.734039 351.723633,117.377464 350.834076,118.260849 
	C350.158173,118.659775 349.482269,119.058708 348.167603,119.758476 
	C343.387878,124.402710 338.661987,129.104126 333.811279,133.672989 
	C329.957031,137.303284 325.950043,140.771423 321.456116,144.462540 
	C321.099396,145.309555 320.742706,146.156555 319.834900,147.456879 
	C319.512177,148.288269 319.189453,149.119659 318.365662,150.446259 
	C318.445251,153.666702 318.524811,156.887131 318.638702,160.945816 
	C319.187592,163.961029 319.736481,166.976257 320.025269,170.668701 
	C316.851135,175.033112 313.676971,179.397522 309.947479,184.065598 
	C305.644897,188.742142 301.342316,193.418671 296.434235,198.370911 
	C291.667480,202.998611 286.900726,207.626328 281.355988,213.009323 
	C280.831482,207.763474 280.442444,203.872849 280.216095,199.062592 
	C280.121857,194.040329 280.027618,189.018066 280.099030,183.098572 
	C280.602631,173.388123 281.106262,163.677658 281.798920,153.110840 
	C281.992615,145.555374 283.527649,138.381439 288.164734,131.394974 
	C292.125122,125.268837 296.085510,119.142700 300.620850,112.629967 
	C302.839508,107.789124 305.058197,102.948273 307.823029,97.592743 
	C310.317932,89.496872 310.581085,81.295540 309.091309,72.227745 
	C308.893524,70.438728 308.695740,68.649719 308.410950,66.030838 
	C308.079193,64.694862 307.747437,63.358894 307.542175,61.482910 
	C307.376373,60.982704 307.210602,60.482498 307.085693,59.205605 
	C306.153381,56.430866 305.221069,53.656128 304.185059,50.153103 
	C301.559326,45.864422 299.460297,41.121300 296.218445,37.364250 
	C280.633972,19.303167 248.482651,24.205931 239.425583,51.486305 
	C238.222809,56.659412 237.020035,61.832520 235.426224,67.686211 
	C235.288773,69.793083 235.151306,71.899948 234.745850,74.462677 
	C234.779495,75.327255 234.813156,76.191841 234.544235,77.748528 
	C234.589172,79.486893 234.634109,81.225250 234.429657,83.622536 
	C234.529648,84.074898 234.629654,84.527260 234.470551,85.559006 
	C234.648712,86.371811 234.826859,87.184608 234.837280,88.826561 
	C235.055817,90.211266 235.274338,91.595978 235.325180,93.521393 
	C235.578568,94.003708 235.831970,94.486031 236.069763,95.655815 
	C236.169159,96.097374 236.268570,96.538940 236.493652,97.685768 
	C239.053299,102.788094 241.612946,107.890427 244.145157,113.713821 
	C248.159561,119.471809 252.173981,125.229797 256.199860,131.707581 
	C261.305908,138.275787 261.765289,146.251312 262.851318,154.923355 
	C263.308899,164.944595 263.766449,174.965836 264.074249,185.910507 
	C264.087616,190.605072 264.100983,195.299637 263.942017,200.880539 
	C263.786377,205.360443 263.630737,209.840363 262.837067,214.029495 
	C262.207092,213.729965 261.577118,213.430435 260.599762,212.547867 
	C257.726166,210.135239 254.772430,207.810730 251.998627,205.288330 
	C248.272812,201.900208 244.686020,198.359192 240.742035,194.288666 
	C235.562729,189.048553 230.383408,183.808456 224.951736,177.975998 
	C220.030411,172.957214 215.109085,167.938431 209.925552,162.292191 
	C208.189514,160.528458 206.492874,158.723785 204.709869,157.008865 
	C199.828247,152.313629 194.910278,147.656174 189.906876,142.289139 
	C182.597260,134.630554 175.287628,126.971977 167.515015,118.921814 
	C166.992874,118.620651 166.470718,118.319489 165.882965,117.362801 
	C165.272385,116.865829 164.661804,116.368866 163.702057,115.274544 
	C160.472946,111.816803 157.323837,108.279823 153.996262,104.919594 
	C148.783600,99.655769 143.566422,94.383751 138.089798,89.402542 
	C136.648178,88.091339 134.246246,87.835976 132.285294,87.095764 
	C131.701614,88.839676 130.388794,90.705963 130.657486,92.306808 
	C131.988312,100.235550 133.736786,108.094185 135.465988,116.599754 
	C135.944138,117.479996 136.422287,118.360237 136.957687,119.923157 
	C137.384537,120.928810 137.811401,121.934471 138.301682,123.669518 
	C142.439758,130.771271 146.577835,137.873032 150.665344,145.530060 
	C150.977814,146.150269 151.290283,146.770462 151.998352,147.014038 
	C151.864899,147.137634 151.731445,147.261230 151.938843,147.984497 
	C156.305832,153.651505 160.672821,159.318497 165.219070,165.635345 
	C170.127625,171.099106 175.036179,176.562866 180.184311,182.655640 
	C185.528839,188.085800 190.873352,193.515976 196.464813,199.549240 
	C201.949707,205.041367 207.434601,210.533508 213.191620,216.642410 
	C219.400284,224.505508 227.261307,228.016479 237.340179,226.030823 
	C239.939911,225.518646 242.648575,225.587601 245.281845,225.211899 
	C251.715668,224.293930 256.151337,227.004471 259.294922,232.635498 
	C258.233734,233.976807 257.217438,235.261398 255.583618,236.723328 
	C246.711426,244.789810 237.839249,252.856308 228.336273,261.165985 
	C219.904510,268.815430 211.472763,276.464905 202.431396,284.371490 
	C195.960220,290.261536 189.489044,296.151581 182.412262,302.319427 
	C176.134369,308.809784 169.856476,315.300140 162.984375,322.188446 
	C162.332092,325.045410 161.198761,327.889374 161.121414,330.761841 
	C160.921829,338.172028 165.707840,342.171143 172.933411,343.235779 
	C182.099686,344.586273 186.876022,338.685486 192.067001,333.284668 
	C194.734268,330.509583 196.786835,327.143677 199.686447,323.704285 
	C204.799194,317.804932 209.911926,311.905579 215.588882,305.656891 
	C220.751373,299.781219 225.913849,293.905548 231.642593,287.687531 
	C238.212296,280.329132 244.781998,272.970734 251.913254,265.220520 
	C255.212570,261.719055 258.511902,258.217590 262.497498,253.987778 
	C262.497498,258.152039 262.497498,261.054382 262.267578,264.873047 
	C261.884949,273.245422 261.502319,281.617828 260.949554,290.849274 
	C260.586731,298.219452 260.223938,305.589600 259.532562,313.713715 
	C259.168121,320.804535 258.803680,327.895386 258.210968,335.893829 
	C257.989899,341.250183 257.768799,346.606567 257.372894,352.720428 
	C257.990601,359.516235 260.486359,365.525848 267.177307,367.964935 
	C278.704834,372.167206 286.661835,362.637512 286.935883,351.092316 
	C286.575867,345.727753 286.215851,340.363190 285.949829,334.099731 
	C285.535919,327.392670 285.122009,320.685638 284.796295,313.114929 
	C284.239716,305.396057 283.683136,297.677185 283.228516,289.031830 
	C282.761353,280.682648 282.294220,272.333496 281.920532,263.059113 
	C281.966827,261.195496 282.013092,259.331879 282.541565,257.583435 
	C282.541565,257.583435 283.023254,257.700714 283.377319,258.284302 
	C285.527405,260.546936 287.677490,262.809540 290.110107,265.688629 
	C297.255127,273.512848 304.400146,281.337067 311.851685,289.789673 
	C316.867188,295.536041 321.882721,301.282379 327.168671,307.648560 
	C331.878021,313.090973 336.587341,318.533386 341.399353,324.639679 
	C346.568115,330.278625 351.406372,336.277832 357.021973,341.429688 
	C360.757599,344.856812 372.450287,343.693481 375.161957,340.375366 
	C379.484619,335.085876 380.591431,329.242157 377.343933,322.216187 
	C371.261841,316.052307 365.179779,309.888397 358.689606,303.210175 
	C357.184479,301.971680 355.609924,300.807678 354.186920,299.481079 
	C349.418488,295.035767 344.704163,290.532440 339.649658,285.462738 
	C330.459259,277.247833 321.268890,269.032898 311.756836,260.245575 
	C302.878601,252.064758 294.000336,243.883942 284.788513,235.112976 
	C282.506805,233.239380 282.634125,231.571381 284.721741,229.422714 
	C288.609894,225.420883 292.215088,221.144165 296.528656,216.667587 
	C301.358398,211.789841 306.188171,206.912109 311.632416,201.774200 
	C317.499542,196.548798 323.366638,191.323395 329.895355,185.830643 
	C331.956696,185.143692 334.018005,184.456757 336.474060,184.135971 
	C336.992737,184.165970 337.511383,184.195969 338.762085,184.613785 
	C341.192108,185.026047 343.622162,185.438324 346.472626,186.182755 
	C346.990631,186.175186 347.508606,186.167603 348.774506,186.490234 
	C352.165344,185.509369 356.187714,185.355194 358.802155,183.357971 
	C362.945007,180.193222 366.145935,175.795410 370.345367,171.597870 
	C375.395538,166.156815 380.484436,160.751022 385.482300,155.262329 
	C388.811157,151.606506 392.010162,147.832428 395.680878,144.058624 
	C395.680878,144.058624 395.991943,143.781067 396.602142,143.651535 
	C397.099976,142.780350 397.597839,141.909164 398.593140,140.953979 
	C398.723785,140.848099 398.854401,140.742203 399.531494,140.476318 
	C399.902802,139.650589 400.274109,138.824860 401.243256,137.613083 
	C403.997101,134.407028 406.731110,131.183685 409.509003,127.998596 
	C414.828888,121.899002 420.259796,115.892464 425.422913,109.663544 
	C426.274994,108.635574 425.999390,106.672928 426.244965,105.142227 
	C424.612518,105.609512 422.489471,105.577057 421.424530,106.622475 
	C412.175568,115.701500 403.116486,124.973984 393.506042,134.241196 
	C393.296906,134.828156 393.087769,135.415100 392.226959,136.286209 
M459.102722,168.117188 
	C459.093719,164.643723 459.375793,161.139359 459.010956,157.703690 
	C458.383423,151.793930 452.606598,148.939819 447.960175,152.045914 
	C446.762665,152.846466 445.788971,153.996552 444.561432,154.735077 
	C436.972839,159.300705 429.341095,163.794601 421.001434,168.446991 
	C416.658478,171.210403 412.315491,173.973816 407.264252,176.849792 
	C403.140839,179.470459 399.017426,182.091125 394.189667,184.830490 
	C389.440735,187.832886 384.691833,190.835297 379.237579,193.945389 
	C373.093140,197.784088 366.948730,201.622787 360.091675,205.620316 
	C355.729126,208.439499 351.366608,211.258682 346.304504,214.083328 
	C343.203369,216.062515 340.102203,218.041702 336.316650,220.139236 
	C332.848511,222.346558 329.380341,224.553879 325.213623,226.899536 
	C320.124237,230.218002 315.034821,233.536469 309.309967,237.183273 
	C305.927856,241.114716 306.687195,244.817322 310.350800,247.893478 
	C312.560883,249.749207 315.279541,250.999268 318.193878,253.019836 
	C323.964478,256.434021 329.735046,259.848236 335.942047,263.819000 
	C342.531128,267.777557 349.120209,271.736084 356.151917,276.157471 
	C361.252838,279.164032 366.353790,282.170624 371.906952,285.744507 
	C378.808044,289.884155 385.709137,294.023834 393.061798,298.701813 
	C400.560303,303.189972 408.058838,307.678162 416.023743,312.704498 
	C421.464264,316.092102 426.908966,319.472992 432.344055,322.869293 
	C436.935547,325.738403 441.400452,328.837708 446.147644,331.419006 
	C448.693817,332.803497 452.289124,334.695526 454.368591,333.836151 
	C456.578033,332.923004 458.505035,329.149445 458.862549,326.404449 
	C459.520691,321.351929 458.939301,316.137909 459.032257,310.074127 
	C458.979401,305.713318 458.926544,301.352539 459.041504,296.083801 
	C458.983337,292.385925 458.925140,288.688049 459.044586,284.088928 
	C458.983429,280.723053 458.922272,277.357147 459.045868,273.086182 
	C458.986267,269.387726 458.926697,265.689270 459.055878,261.091339 
	C458.991089,257.724670 458.926300,254.358017 459.057861,250.105103 
	C458.990143,247.386414 458.922424,244.667725 459.057648,241.053284 
	C458.991028,237.366180 458.924408,233.679092 459.063538,229.135132 
	C458.996002,227.089233 458.928467,225.043320 459.078430,222.158875 
	C459.006592,220.437225 458.934753,218.715561 459.076660,216.114166 
	C459.004730,213.407288 458.932831,210.700394 459.078125,207.105209 
	C459.007416,204.060226 458.936707,201.015244 459.085693,197.087067 
	C459.013733,194.056168 458.941742,191.025284 459.092255,187.127243 
	C459.017426,184.749603 458.942596,182.371979 459.092987,179.102631 
	C459.020538,175.743149 458.948090,172.383667 459.102722,168.117188 
M126.588013,170.454666 
	C124.763763,169.312469 122.967476,168.122467 121.110413,167.036392 
	C113.285965,162.460419 105.535561,157.743729 97.553467,153.459763 
	C95.032272,152.106628 91.572906,150.888168 89.109093,151.591507 
	C87.379021,152.085403 86.607758,155.938065 85.093277,159.144913 
	C85.081902,168.960770 85.002731,178.777130 85.075462,188.592361 
	C85.177727,202.391556 85.392746,216.189926 85.292953,230.871536 
	C85.380562,234.235565 85.468170,237.599594 85.294960,241.799500 
	C85.379646,243.535492 85.464333,245.271500 85.303116,247.846634 
	C85.362885,249.876785 85.422661,251.906952 85.224144,254.851120 
	C85.331398,264.896881 85.438652,274.942627 85.301765,285.881653 
	C85.378624,289.573334 85.455490,293.265015 85.288040,297.863037 
	C85.366989,301.893890 85.445930,305.924774 85.282471,310.871857 
	C85.850983,317.590790 86.419495,324.309723 87.042305,331.751221 
	C90.657249,336.156708 94.374641,335.921387 98.723152,330.797607 
	C109.289711,324.258698 119.856277,317.719788 131.074783,311.013306 
	C138.517639,306.392487 145.960495,301.771667 154.056519,296.989075 
	C159.758347,293.435699 165.460190,289.882324 171.840607,286.126129 
	C176.358444,283.308746 180.876266,280.491333 186.061234,277.448303 
	C189.782883,275.108887 193.504547,272.769470 197.823303,270.049530 
	C202.081070,267.429474 206.338837,264.809418 211.247101,262.075073 
	C215.369354,259.475861 219.491608,256.876617 224.248840,254.145325 
	C227.036606,252.358521 229.824371,250.571732 233.229782,248.469543 
	C234.986069,245.917984 237.898514,243.729553 235.838058,239.303665 
	C229.945343,235.053986 224.052628,230.804306 217.654419,226.107208 
	C211.443985,222.381180 205.233551,218.655151 198.576050,214.386963 
	C192.723221,210.907104 186.870392,207.427246 180.617020,203.409073 
	C174.103516,199.536392 167.590012,195.663696 160.659134,191.238419 
	C155.439606,188.157135 150.220078,185.075867 144.614105,181.442917 
	C138.740692,177.966400 132.867294,174.489883 126.588013,170.454666 
z"/>
<path fill="#3F2E66" opacity="1.000000" stroke="none" 
	d="
M209.468277,432.000000 
	C215.067429,428.797485 221.239410,429.567963 227.721191,431.757294 
	C221.978851,432.000000 215.957703,432.000000 209.468277,432.000000 
z"/>
<path fill="#4B75A6" opacity="1.000000" stroke="none" 
	d="
M458.854706,241.949036 
	C458.922424,244.667725 458.990143,247.386414 458.500610,250.547577 
	C413.570496,250.993195 369.197571,250.973145 324.824860,251.064301 
	C322.472168,251.069138 320.121338,252.014145 317.769653,252.521484 
	C315.279541,250.999268 312.560883,249.749207 310.350800,247.893478 
	C306.687195,244.817322 305.927856,241.114716 309.762634,237.377853 
	C312.915253,238.381561 315.612915,239.887054 318.315491,239.895966 
	C362.702209,240.042328 407.089661,239.968903 451.476562,240.083176 
	C453.937531,240.089508 456.395386,241.299362 458.854706,241.949036 
z"/>
<path fill="#4C7DAB" opacity="1.000000" stroke="none" 
	d="
M85.555786,240.963623 
	C85.468170,237.599594 85.380562,234.235565 85.856857,230.430069 
	C127.695129,229.992188 168.969528,230.007141 210.243866,229.976288 
	C213.304718,229.973999 216.821426,230.690704 218.159912,226.554626 
	C224.052628,230.804306 229.945343,235.053986 235.452179,239.685562 
	C232.603577,240.377762 230.141113,240.956497 227.678131,240.958679 
	C180.304047,241.000763 132.929916,240.975220 85.555786,240.963623 
z"/>
<path fill="#4D88B2" opacity="1.000000" stroke="none" 
	d="
M217.907166,226.330917 
	C216.821426,230.690704 213.304718,229.973999 210.243866,229.976288 
	C168.969528,230.007141 127.695129,229.992188 85.990143,229.988617 
	C85.392746,216.189926 85.177727,202.391556 85.075462,188.592361 
	C85.002731,178.777130 85.081902,168.960770 85.422005,159.213104 
	C85.917366,164.164642 86.084007,169.047989 86.203201,174.393005 
	C86.187813,178.217438 86.219872,181.580246 86.215240,185.398193 
	C86.198807,188.877701 86.219063,191.902084 86.203156,195.389679 
	C86.185623,199.537216 86.204262,203.221512 86.185448,207.369293 
	C86.113876,209.161179 86.196129,210.504807 86.024727,211.815247 
	C85.403198,216.567322 87.322105,218.608780 92.166870,218.041916 
	C94.297577,217.792618 96.481773,218.000580 98.641678,218.000580 
	C130.043396,218.000488 161.445160,218.021149 192.846756,217.959244 
	C195.257782,217.954483 198.530777,219.103043 199.023117,214.929123 
	C205.233551,218.655151 211.443985,222.381180 217.907166,226.330917 
z"/>
<path fill="#4A5D97" opacity="1.000000" stroke="none" 
	d="
M285.122101,235.703125 
	C294.000336,243.883942 302.878601,252.064758 311.860046,260.923706 
	C310.035889,262.731506 308.178986,264.659332 306.167603,264.836914 
	C300.756165,265.314636 295.278778,265.045074 289.827576,265.072174 
	C287.677490,262.809540 285.527405,260.546936 283.096130,257.910034 
	C282.574402,257.418091 282.322540,257.395569 282.059387,257.468262 
	C282.013092,259.331879 281.966827,261.195496 281.466797,263.561218 
	C274.841217,264.027802 268.669373,263.992249 262.497498,263.956696 
	C262.497498,261.054382 262.497498,258.152039 262.497498,253.987778 
	C258.511902,258.217590 255.212570,261.719055 251.299347,265.103790 
	C245.152390,264.658051 239.620560,264.306152 234.085693,264.010956 
	C231.799667,263.889069 229.229126,264.351318 228.967056,260.922791 
	C237.839249,252.856308 246.711426,244.789810 256.312805,236.849823 
	C265.494171,239.748581 274.067566,239.404007 282.645782,237.804199 
	C283.569702,237.631882 284.301300,236.428329 285.122101,235.703125 
z"/>
<path fill="#4A6BA0" opacity="1.000000" stroke="none" 
	d="
M317.981750,252.770660 
	C320.121338,252.014145 322.472168,251.069138 324.824860,251.064301 
	C369.197571,250.973145 413.570496,250.993195 458.402466,250.990692 
	C458.926300,254.358017 458.991089,257.724670 458.502136,261.540833 
	C419.891235,261.993591 381.833984,261.970764 343.776978,262.054443 
	C341.018982,262.060516 338.262726,262.841644 335.505646,263.262421 
	C329.735046,259.848236 323.964478,256.434021 317.981750,252.770660 
z"/>
<path fill="#4C7FAC" opacity="1.000000" stroke="none" 
	d="
M458.956177,241.501160 
	C456.395386,241.299362 453.937531,240.089508 451.476562,240.083176 
	C407.089661,239.968903 362.702209,240.042328 318.315491,239.895966 
	C315.612915,239.887054 312.915253,238.381561 310.080383,237.213684 
	C315.034821,233.536469 320.124237,230.218002 325.675049,227.214722 
	C328.441528,228.352783 330.744141,229.885391 333.051971,229.893204 
	C374.986877,230.035385 416.922394,229.994171 458.857788,229.991989 
	C458.924408,233.679092 458.991028,237.366180 458.956177,241.501160 
z"/>
<path fill="#4A609A" opacity="1.000000" stroke="none" 
	d="
M335.723846,263.540710 
	C338.262726,262.841644 341.018982,262.060516 343.776978,262.054443 
	C381.833984,261.970764 419.891235,261.993591 458.407776,261.990570 
	C458.926697,265.689270 458.986267,269.387726 458.494751,273.538696 
	C426.189636,273.994141 394.435455,273.961609 362.681793,274.072998 
	C360.355743,274.081177 358.033386,275.129761 355.709290,275.694641 
	C349.120209,271.736084 342.531128,267.777557 335.723846,263.540710 
z"/>
<path fill="#5DC2D5" opacity="1.000000" stroke="none" 
	d="
M239.961395,50.987755 
	C248.482651,24.205931 280.633972,19.303167 296.218445,37.364250 
	C299.460297,41.121300 301.559326,45.864422 303.883606,50.714012 
	C301.558502,51.848663 299.538605,52.904671 297.510681,52.920353 
	C280.285217,53.053520 263.057739,53.061623 245.832642,52.909515 
	C243.870056,52.892181 241.918213,51.657806 239.961395,50.987755 
z"/>
<path fill="#4F93B9" opacity="1.000000" stroke="none" 
	d="
M198.799591,214.658051 
	C198.530777,219.103043 195.257782,217.954483 192.846756,217.959244 
	C161.445160,218.021149 130.043396,218.000488 98.641678,218.000580 
	C96.481773,218.000580 94.297577,217.792618 92.166870,218.041916 
	C87.322105,218.608780 85.403198,216.567322 86.024727,211.815247 
	C86.196129,210.504807 86.113876,209.161179 86.631393,207.396881 
	C116.519066,206.973557 145.923370,206.999741 175.327621,206.972717 
	C177.662949,206.970581 180.638550,207.794418 181.017578,203.947388 
	C186.870392,207.427246 192.723221,210.907104 198.799591,214.658051 
z"/>
<path fill="#58B4CD" opacity="1.000000" stroke="none" 
	d="
M308.497925,66.860703 
	C308.695740,68.649719 308.893524,70.438728 308.830261,72.925583 
	C308.384369,74.592674 308.055115,75.559441 308.038391,76.531570 
	C307.938202,82.367279 306.844238,83.562347 300.954895,83.959007 
	C299.629272,84.048294 298.293213,84.017586 296.962738,83.995827 
	C276.201447,83.656242 255.440262,83.309052 234.679047,82.963615 
	C234.634109,81.225250 234.589172,79.486893 234.905975,77.195793 
	C235.183105,75.764313 235.098480,74.885567 235.013855,74.006821 
	C235.151306,71.899948 235.288773,69.793083 236.044983,67.420349 
	C239.118027,67.436295 241.570908,67.946495 244.026871,67.961746 
	C257.107391,68.042915 270.190643,68.136452 283.269073,67.951363 
	C291.682159,67.832298 300.088531,67.240578 308.497925,66.860703 
z"/>
<path fill="#509CBE" opacity="1.000000" stroke="none" 
	d="
M360.804291,205.461502 
	C366.948730,201.622787 373.093140,197.784088 379.699829,194.270401 
	C382.313538,195.397186 384.459595,196.878616 386.617218,196.895691 
	C408.419037,197.068237 430.222778,196.972672 452.025696,197.043915 
	C454.306793,197.051361 456.585938,197.647339 458.865997,197.970261 
	C458.936707,201.015244 459.007416,204.060226 458.558960,207.582977 
	C456.238403,208.366516 454.437561,208.935135 452.635590,208.938782 
	C423.981659,208.996826 395.327087,209.051636 366.674713,208.833237 
	C364.709442,208.818253 362.760712,206.635910 360.804291,205.461502 
z"/>
<path fill="#519EBF" opacity="1.000000" stroke="none" 
	d="
M180.817291,203.678223 
	C180.638550,207.794418 177.662949,206.970581 175.327621,206.972717 
	C145.923370,206.999741 116.519066,206.973557 86.668839,206.933380 
	C86.204262,203.221512 86.185623,199.537216 86.648094,195.411072 
	C109.670143,194.979111 132.211090,194.997147 154.752045,194.987869 
	C157.360748,194.986786 160.290466,195.466888 161.076508,191.791016 
	C167.590012,195.663696 174.103516,199.536392 180.817291,203.678223 
z"/>
<path fill="#4A6BA0" opacity="1.000000" stroke="none" 
	d="
M223.613846,254.277405 
	C219.491608,256.876617 215.369354,259.475861 210.407242,262.091431 
	C206.736603,262.071899 203.905869,262.006592 201.075058,262.004364 
	C162.767334,261.974457 124.459618,261.953339 86.133163,261.484802 
	C86.047836,258.610718 85.981247,256.181854 86.252975,253.638626 
	C90.238853,253.682236 93.886261,253.972809 97.534012,253.977280 
	C127.628571,254.014252 157.723221,253.972336 187.817780,254.010880 
	C199.749893,254.026154 211.681824,254.184311 223.613846,254.277405 
z"/>
<path fill="#4B5794" opacity="1.000000" stroke="none" 
	d="
M355.930603,275.926056 
	C358.033386,275.129761 360.355743,274.081177 362.681793,274.072998 
	C394.435455,273.961609 426.189636,273.994141 458.402374,273.991241 
	C458.922272,277.357147 458.983429,280.723053 458.496826,284.539734 
	C429.117615,285.052765 400.286163,285.114990 371.454712,285.177185 
	C366.353790,282.170624 361.252838,279.164032 355.930603,275.926056 
z"/>
<path fill="#496A9E" opacity="1.000000" stroke="none" 
	d="
M284.955322,235.408051 
	C284.301300,236.428329 283.569702,237.631882 282.645782,237.804199 
	C274.067566,239.404007 265.494171,239.748581 256.621582,236.761154 
	C257.217438,235.261398 258.233734,233.976807 259.294922,232.635498 
	C256.151337,227.004471 251.715668,224.293930 245.281845,225.211899 
	C242.648575,225.587601 239.939911,225.518646 237.340179,226.030823 
	C227.261307,228.016479 219.400284,224.505508 213.529724,216.325775 
	C227.485580,216.006149 241.105576,216.124496 254.718719,215.872055 
	C256.811096,215.833267 258.871796,214.087326 260.947144,213.130920 
	C261.577118,213.430435 262.207092,213.729965 263.324280,214.460266 
	C265.481964,215.593552 267.140015,216.866730 268.824921,216.903305 
	C277.858917,217.099396 286.899658,216.987411 295.938049,216.981842 
	C292.215088,221.144165 288.609894,225.420883 284.721741,229.422714 
	C282.634125,231.571381 282.506805,233.239380 284.955322,235.408051 
z"/>
<path fill="#55ACC8" opacity="1.000000" stroke="none" 
	d="
M234.554352,83.293076 
	C255.440262,83.309052 276.201447,83.656242 296.962738,83.995827 
	C298.293213,84.017586 299.629272,84.048294 300.954895,83.959007 
	C306.844238,83.562347 307.938202,82.367279 308.038391,76.531570 
	C308.055115,75.559441 308.384369,74.592674 308.777039,73.314880 
	C310.581085,81.295540 310.317932,89.496872 307.063690,97.826645 
	C302.165558,98.040573 298.026062,98.063164 293.888123,97.993332 
	C274.714508,97.669762 255.541306,97.320534 236.367966,96.980499 
	C236.268570,96.538940 236.169159,96.097374 236.214478,95.139923 
	C236.070419,94.076248 235.781647,93.528458 235.492859,92.980682 
	C235.274338,91.595978 235.055817,90.211266 235.098480,88.216499 
	C235.149658,86.730835 234.939651,85.855225 234.729645,84.979622 
	C234.629654,84.527260 234.529648,84.074898 234.554352,83.293076 
z"/>
<path fill="#5BBCD2" opacity="1.000000" stroke="none" 
	d="
M308.454437,66.445770 
	C300.088531,67.240578 291.682159,67.832298 283.269073,67.951363 
	C270.190643,68.136452 257.107391,68.042915 244.026871,67.961746 
	C241.570908,67.946495 239.118027,67.436295 236.240494,67.080063 
	C237.020035,61.832520 238.222809,56.659412 239.693481,51.237030 
	C241.918213,51.657806 243.870056,52.892181 245.832642,52.909515 
	C263.057739,53.061623 280.285217,53.053520 297.510681,52.920353 
	C299.538605,52.904671 301.558502,51.848663 303.935455,51.078156 
	C305.221069,53.656128 306.153381,56.430866 306.907715,59.752651 
	C306.958344,60.874111 307.186981,61.448524 307.415649,62.022934 
	C307.747437,63.358894 308.079193,64.694862 308.454437,66.445770 
z"/>
<path fill="#53A4C3" opacity="1.000000" stroke="none" 
	d="
M236.430817,97.333130 
	C255.541306,97.320534 274.714508,97.669762 293.888123,97.993332 
	C298.026062,98.063164 302.165558,98.040573 306.790619,98.083992 
	C305.058197,102.948273 302.839508,107.789124 299.924438,112.826340 
	C294.808136,113.306458 290.385132,113.870499 285.968903,113.822006 
	C272.035431,113.669044 258.104492,113.286484 244.172592,112.992760 
	C241.612946,107.890427 239.053299,102.788094 236.430817,97.333130 
z"/>
<path fill="#4A73A4" opacity="1.000000" stroke="none" 
	d="
M223.931335,254.211365 
	C211.681824,254.184311 199.749893,254.026154 187.817780,254.010880 
	C157.723221,253.972336 127.628571,254.014252 97.534012,253.977280 
	C93.886261,253.972809 90.238853,253.682236 86.143677,253.682556 
	C85.696068,253.840836 85.482430,253.937103 85.482430,253.937103 
	C85.422661,251.906952 85.362885,249.876785 85.856659,247.424286 
	C132.645813,247.001328 178.881485,246.972961 225.116852,247.076187 
	C227.616531,247.081772 230.113770,248.189987 232.612137,248.784943 
	C229.824371,250.571732 227.036606,252.358521 223.931335,254.211365 
z"/>
<path fill="#4C4C8D" opacity="1.000000" stroke="none" 
	d="
M371.680847,285.460846 
	C400.286163,285.114990 429.117615,285.052765 458.408020,284.990356 
	C458.925140,288.688049 458.983337,292.385925 458.498413,296.537903 
	C439.128204,296.994904 420.300842,296.947693 401.474274,297.052582 
	C398.517639,297.069061 395.564819,297.775848 392.610229,298.163452 
	C385.709137,294.023834 378.808044,289.884155 371.680847,285.460846 
z"/>
<path fill="#4C4C8D" opacity="1.000000" stroke="none" 
	d="
M85.532356,296.956696 
	C85.455490,293.265015 85.378624,289.573334 85.852356,285.435425 
	C112.445641,284.992828 138.488464,284.964447 164.530823,285.057709 
	C166.742722,285.065643 168.951691,285.886017 171.162018,286.328979 
	C165.460190,289.882324 159.758347,293.435699 153.273834,297.027771 
	C146.245346,297.043915 139.999542,297.009399 133.753708,297.001221 
	C117.679932,296.980194 101.606140,296.970764 85.532356,296.956696 
z"/>
<path fill="#4D88B2" opacity="1.000000" stroke="none" 
	d="
M458.960663,229.563568 
	C416.922394,229.994171 374.986877,230.035385 333.051971,229.893204 
	C330.744141,229.885391 328.441528,228.352783 326.024323,227.145569 
	C329.380341,224.553879 332.848511,222.346558 336.718750,220.468033 
	C339.259247,221.530960 341.395538,222.898117 343.536377,222.905273 
	C381.977570,223.033905 420.419312,222.998032 458.860931,222.997421 
	C458.928467,225.043320 458.996002,227.089233 458.960663,229.563568 
z"/>
<path fill="#4B75A6" opacity="1.000000" stroke="none" 
	d="
M232.920959,248.627228 
	C230.113770,248.189987 227.616531,247.081772 225.116852,247.076187 
	C178.881485,246.972961 132.645813,247.001328 85.979614,247.004715 
	C85.464333,245.271500 85.379646,243.535492 85.425369,241.381561 
	C132.929916,240.975220 180.304047,241.000763 227.678131,240.958679 
	C230.141113,240.956497 232.603577,240.377762 235.478729,240.031677 
	C237.898514,243.729553 234.986069,245.917984 232.920959,248.627228 
z"/>
<path fill="#4F93B9" opacity="1.000000" stroke="none" 
	d="
M360.447998,205.540909 
	C362.760712,206.635910 364.709442,208.818253 366.674713,208.833237 
	C395.327087,209.051636 423.981659,208.996826 452.635590,208.938782 
	C454.437561,208.935135 456.238403,208.366516 458.450317,208.027130 
	C458.932831,210.700394 459.004730,213.407288 458.510284,216.552933 
	C422.891602,216.994141 387.839294,217.011719 352.787079,216.964157 
	C350.503876,216.961060 347.466949,217.951355 347.004059,214.077866 
	C351.366608,211.258682 355.729126,208.439499 360.447998,205.540909 
z"/>
<path fill="#4F97BA" opacity="1.000000" stroke="none" 
	d="
M167.978012,119.313393 
	C175.287628,126.971977 182.597260,134.630554 189.847137,143.004608 
	C187.788696,144.480072 185.823273,145.784225 183.785675,145.908936 
	C173.066498,146.565048 162.329071,146.923233 151.597992,147.384827 
	C151.731445,147.261230 151.864899,147.137634 151.858734,146.922333 
	C151.384735,146.212006 151.050323,145.593399 150.715927,144.974792 
	C146.577835,137.873032 142.439758,130.771271 138.722870,123.311317 
	C147.079132,123.300690 155.017654,123.586166 162.947708,124.024460 
	C166.424149,124.216614 168.450729,123.182083 167.978012,119.313393 
z"/>
<path fill="#4B5794" opacity="1.000000" stroke="none" 
	d="
M171.501312,286.227539 
	C168.951691,285.886017 166.742722,285.065643 164.530823,285.057709 
	C138.488464,284.964447 112.445641,284.992828 85.974426,284.988770 
	C85.438652,274.942627 85.331398,264.896881 85.353287,254.394104 
	C85.482430,253.937103 85.696068,253.840836 85.805359,253.796906 
	C85.981247,256.181854 86.047836,258.610718 86.097168,261.918701 
	C86.096237,264.522522 86.112572,266.247314 86.105591,268.415894 
	C85.991318,275.984070 85.991318,275.996124 93.167831,275.997467 
	C121.575638,276.002777 149.983597,275.960693 178.390961,276.072540 
	C180.727417,276.081726 183.059814,277.115967 185.394104,277.673950 
	C180.876266,280.491333 176.358444,283.308746 171.501312,286.227539 
z"/>
<path fill="#4D8CB4" opacity="1.000000" stroke="none" 
	d="
M151.768417,147.684662 
	C162.329071,146.923233 173.066498,146.565048 183.785675,145.908936 
	C185.823273,145.784225 187.788696,144.480072 189.897064,143.351929 
	C194.910278,147.656174 199.828247,152.313629 204.709869,157.008865 
	C206.492874,158.723785 208.189514,160.528458 209.711456,162.803772 
	C207.133743,163.876770 204.775894,164.893311 202.405533,164.923386 
	C189.952026,165.081512 177.495377,164.990204 165.039810,164.985504 
	C160.672821,159.318497 156.305832,153.651505 151.768417,147.684662 
z"/>
<path fill="#4A73A4" opacity="1.000000" stroke="none" 
	d="
M260.773438,212.839386 
	C258.871796,214.087326 256.811096,215.833267 254.718719,215.872055 
	C241.105576,216.124496 227.485580,216.006149 213.393661,216.017395 
	C207.434601,210.533508 201.949707,205.041367 196.795258,199.255753 
	C208.944870,198.973068 220.766571,199.121445 232.581497,198.903305 
	C235.755722,198.844696 239.941605,199.794037 241.039536,194.883820 
	C244.686020,198.359192 248.272812,201.900208 251.998627,205.288330 
	C254.772430,207.810730 257.726166,210.135239 260.773438,212.839386 
z"/>
<path fill="#4C92B4" opacity="1.000000" stroke="none" 
	d="
M373.096313,127.038521 
	C368.167328,132.608475 363.191895,138.138611 358.353333,143.786026 
	C357.508881,144.771683 357.240936,146.251251 356.742554,148.145233 
	C354.916840,149.524353 353.077332,150.822144 351.189789,150.896225 
	C344.536713,151.157379 337.864014,151.122360 331.204987,150.953934 
	C327.086395,150.849762 322.979065,150.300491 318.866699,149.951050 
	C319.189453,149.119659 319.512177,148.288269 320.366028,147.112595 
	C321.268372,145.949387 321.639618,145.130463 322.010864,144.311554 
	C325.950043,140.771423 329.957031,137.303284 333.811279,133.672989 
	C338.661987,129.104126 343.387878,124.402710 348.621155,119.982613 
	C352.040405,121.134636 355.006165,122.062523 357.971893,122.990417 
	C355.807159,125.314148 353.610748,127.609360 351.487396,129.970291 
	C349.670166,131.990875 347.936707,134.086777 346.925781,136.954926 
	C354.865509,134.638718 359.674652,128.341568 365.612915,123.489990 
	C365.764740,128.360519 366.245575,128.577438 373.096313,127.038521 
z"/>
<path fill="#4B7CA9" opacity="1.000000" stroke="none" 
	d="
M240.890778,194.586243 
	C239.941605,199.794037 235.755722,198.844696 232.581497,198.903305 
	C220.766571,199.121445 208.944870,198.973068 196.671799,198.954193 
	C190.873352,193.515976 185.528839,188.085800 180.414429,182.190460 
	C181.286606,181.583664 181.930939,181.309097 182.570374,181.320160 
	C194.477509,181.525742 206.385880,181.951920 218.289185,181.836533 
	C220.604507,181.814102 222.899658,179.711472 225.204102,178.568344 
	C230.383408,183.808456 235.562729,189.048553 240.890778,194.586243 
z"/>
<path fill="#519EBF" opacity="1.000000" stroke="none" 
	d="
M244.158875,113.353287 
	C258.104492,113.286484 272.035431,113.669044 285.968903,113.822006 
	C290.385132,113.870499 294.808136,113.306458 299.636963,113.019646 
	C296.085510,119.142700 292.125122,125.268837 287.529968,131.691040 
	C276.659576,131.654007 266.423981,131.320892 256.188385,130.987793 
	C252.173981,125.229797 248.159561,119.471809 244.158875,113.353287 
z"/>
<path fill="#4C84AF" opacity="1.000000" stroke="none" 
	d="
M225.077911,178.272171 
	C222.899658,179.711472 220.604507,181.814102 218.289185,181.836533 
	C206.385880,181.951920 194.477509,181.525742 182.570374,181.320160 
	C181.930939,181.309097 181.286606,181.583664 180.294647,181.875946 
	C175.036179,176.562866 170.127625,171.099106 165.129440,165.310425 
	C177.495377,164.990204 189.952026,165.081512 202.405533,164.923386 
	C204.775894,164.893311 207.133743,163.876770 209.842560,163.117523 
	C215.109085,167.938431 220.030411,172.957214 225.077911,178.272171 
z"/>
<path fill="#4A5D97" opacity="1.000000" stroke="none" 
	d="
M185.727661,277.561127 
	C183.059814,277.115967 180.727417,276.081726 178.390961,276.072540 
	C149.983597,275.960693 121.575638,276.002777 93.167831,275.997467 
	C85.991318,275.996124 85.991318,275.984070 86.560852,268.424530 
	C104.329597,268.222961 121.619255,268.506989 138.910049,268.675903 
	C156.143250,268.844269 173.378189,268.847443 190.610626,269.062134 
	C192.821152,269.089661 195.021271,269.953583 197.226212,270.430054 
	C193.504547,272.769470 189.782883,275.108887 185.727661,277.561127 
z"/>
<path fill="#4E4085" opacity="1.000000" stroke="none" 
	d="
M392.835999,298.432617 
	C395.564819,297.775848 398.517639,297.069061 401.474274,297.052582 
	C420.300842,296.947693 439.128204,296.994904 458.414490,296.991882 
	C458.926544,301.352539 458.979401,305.713318 458.494446,310.533112 
	C443.823517,311.383514 429.690430,311.774933 415.557343,312.166321 
	C408.058838,307.678162 400.560303,303.189972 392.835999,298.432617 
z"/>
<path fill="#4D88B2" opacity="1.000000" stroke="none" 
	d="
M320.285370,169.991470 
	C319.736481,166.976257 319.187592,163.961029 319.117584,160.504608 
	C330.653961,160.042252 341.712891,160.119965 352.768280,159.955902 
	C357.852356,159.880463 362.929413,159.331131 368.009674,158.996674 
	C374.421783,152.972916 380.833862,146.949173 387.615967,141.269714 
	C388.722809,147.374771 392.630463,143.890350 395.267303,144.111298 
	C392.010162,147.832428 388.811157,151.606506 385.482300,155.262329 
	C380.484436,160.751022 375.395538,166.156815 369.689636,171.667313 
	C366.505798,171.157974 363.983398,170.109680 361.448578,170.078659 
	C347.729218,169.910690 334.006744,169.994461 320.285370,169.991470 
z"/>
<path fill="#4A609A" opacity="1.000000" stroke="none" 
	d="
M197.524750,270.239807 
	C195.021271,269.953583 192.821152,269.089661 190.610626,269.062134 
	C173.378189,268.847443 156.143250,268.844269 138.910049,268.675903 
	C121.619255,268.506989 104.329597,268.222961 86.584167,267.980713 
	C86.112572,266.247314 86.096237,264.522522 86.115906,262.363892 
	C124.459618,261.953339 162.767334,261.974457 201.075058,262.004364 
	C203.905869,262.006592 206.736603,262.071899 210.081985,262.148590 
	C206.338837,264.809418 202.081070,267.429474 197.524750,270.239807 
z"/>
<path fill="#4E4085" opacity="1.000000" stroke="none" 
	d="
M85.410202,297.409851 
	C101.606140,296.970764 117.679932,296.980194 133.753708,297.001221 
	C139.999542,297.009399 146.245346,297.043915 152.947250,297.108643 
	C145.960495,301.771667 138.517639,306.392487 130.307129,310.987518 
	C126.931694,310.642395 124.326271,310.071442 121.715721,310.046875 
	C109.652885,309.933319 97.588623,309.971710 85.524872,309.955627 
	C85.445930,305.924774 85.366989,301.893890 85.410202,297.409851 
z"/>
<path fill="#53A4C3" opacity="1.000000" stroke="none" 
	d="
M167.746521,119.117599 
	C168.450729,123.182083 166.424149,124.216614 162.947708,124.024460 
	C155.017654,123.586166 147.079132,123.300690 138.691162,122.946625 
	C137.811401,121.934471 137.384537,120.928810 136.943451,119.248260 
	C136.398834,117.708084 135.868454,116.842812 135.338074,115.977531 
	C133.736786,108.094185 131.988312,100.235550 130.657486,92.306808 
	C130.388794,90.705963 131.701614,88.839676 132.285294,87.095764 
	C134.246246,87.835976 136.648178,88.091339 138.089798,89.402542 
	C143.566422,94.383751 148.783600,99.655769 153.996262,104.919594 
	C157.323837,108.279823 160.472946,111.816803 163.948395,115.874084 
	C164.779358,116.988525 165.363968,117.503426 165.948578,118.018318 
	C166.470718,118.319489 166.992874,118.620651 167.746521,119.117599 
z"/>
<path fill="#4C84AF" opacity="1.000000" stroke="none" 
	d="
M320.155334,170.330078 
	C334.006744,169.994461 347.729218,169.910690 361.448578,170.078659 
	C363.983398,170.109680 366.505798,171.157974 369.389679,171.828033 
	C366.145935,175.795410 362.945007,180.193222 358.802155,183.357971 
	C356.187714,185.355194 352.165344,185.509369 348.289398,186.152924 
	C347.220245,185.827286 346.636230,185.838928 346.052185,185.850586 
	C343.622162,185.438324 341.192108,185.026047 338.294739,184.241974 
	C337.244720,183.836716 336.662018,183.803268 336.079346,183.769806 
	C334.018005,184.456757 331.956696,185.143692 329.081421,185.938049 
	C326.114471,186.031433 323.925690,186.260620 321.816345,185.950134 
	C318.020050,185.391342 314.271362,184.509064 310.502808,183.761932 
	C313.676971,179.397522 316.851135,175.033112 320.155334,170.330078 
z"/>
<path fill="#4D8CB4" opacity="1.000000" stroke="none" 
	d="
M346.654297,214.080597 
	C347.466949,217.951355 350.503876,216.961060 352.787079,216.964157 
	C387.839294,217.011719 422.891602,216.994141 458.403412,216.992798 
	C458.934753,218.715561 459.006592,220.437225 458.969666,222.578156 
	C420.419312,222.998032 381.977570,223.033905 343.536377,222.905273 
	C341.395538,222.898117 339.259247,221.530960 337.060944,220.408859 
	C340.102203,218.041702 343.203369,216.062515 346.654297,214.080597 
z"/>
<path fill="#4A518F" opacity="1.000000" stroke="none" 
	d="
M289.968842,265.380402 
	C295.278778,265.045074 300.756165,265.314636 306.167603,264.836914 
	C308.178986,264.659332 310.035889,262.731506 312.020874,261.209900 
	C321.268890,269.032898 330.459259,277.247833 339.606384,286.063568 
	C337.506378,287.442261 335.475586,288.799561 333.388153,288.893066 
	C326.117737,289.218811 318.827728,289.106842 311.545166,289.161285 
	C304.400146,281.337067 297.255127,273.512848 289.968842,265.380402 
z"/>
<path fill="#4E4085" opacity="1.000000" stroke="none" 
	d="
M163.578568,321.790497 
	C169.856476,315.300140 176.134369,308.809784 182.892181,302.509613 
	C185.378433,303.466278 187.349503,304.771149 189.397278,304.905304 
	C197.927185,305.464142 206.480164,305.670563 215.024689,306.006226 
	C209.911926,311.905579 204.799194,317.804932 198.924683,323.862854 
	C189.263733,324.014099 180.359482,324.171753 171.468491,323.898346 
	C168.819412,323.816864 166.207504,322.526794 163.578568,321.790497 
z"/>
<path fill="#4A518F" opacity="1.000000" stroke="none" 
	d="
M228.651672,261.044373 
	C229.229126,264.351318 231.799667,263.889069 234.085693,264.010956 
	C239.620560,264.306152 245.152390,264.658051 251.018585,265.299683 
	C244.781998,272.970734 238.212296,280.329132 230.954865,287.823395 
	C228.154800,287.812164 226.040695,287.520050 223.930496,287.546021 
	C218.321732,287.615051 212.700974,288.082977 207.116394,287.791168 
	C205.697769,287.717041 204.396317,285.400543 203.041016,284.114349 
	C211.472763,276.464905 219.904510,268.815430 228.651672,261.044373 
z"/>
<path fill="#54A7C5" opacity="1.000000" stroke="none" 
	d="
M160.867828,191.514709 
	C160.290466,195.466888 157.360748,194.986786 154.752045,194.987869 
	C132.211090,194.997147 109.670143,194.979111 86.684265,194.947830 
	C86.219063,191.902084 86.198807,188.877701 86.659752,185.414291 
	C104.694984,184.982880 122.249039,185.001953 139.803040,184.983932 
	C142.052963,184.981613 144.713943,185.497833 145.000549,181.994598 
	C150.220078,185.075867 155.439606,188.157135 160.867828,191.514709 
z"/>
<path fill="#53A4C3" opacity="1.000000" stroke="none" 
	d="
M458.975830,197.528656 
	C456.585938,197.647339 454.306793,197.051361 452.025696,197.043915 
	C430.222778,196.972672 408.419037,197.068237 386.617218,196.895691 
	C384.459595,196.878616 382.313538,195.397186 380.052490,194.216553 
	C384.691833,190.835297 389.440735,187.832886 394.653931,185.158691 
	C397.246033,186.324692 399.366943,187.868866 401.502808,187.889786 
	C420.623657,188.077179 439.747101,187.996338 458.869781,187.994385 
	C458.941742,191.025284 459.013733,194.056168 458.975830,197.528656 
z"/>
<path fill="#4E4085" opacity="1.000000" stroke="none" 
	d="
M359.097687,303.724487 
	C365.179779,309.888397 371.261841,316.052307 377.030762,322.628754 
	C374.613922,323.359619 372.512604,323.932648 370.406067,323.952667 
	C360.703735,324.044739 350.999969,323.982605 341.296692,323.975800 
	C336.587341,318.533386 331.878021,313.090973 327.508728,307.331482 
	C336.945160,306.671570 346.046570,306.415680 355.132507,305.891846 
	C356.491364,305.813477 357.777771,304.478271 359.097687,303.724487 
z"/>
<path fill="#50327C" opacity="1.000000" stroke="none" 
	d="
M85.403671,310.413757 
	C97.588623,309.971710 109.652885,309.933319 121.715721,310.046875 
	C124.326271,310.071442 126.931694,310.642395 129.981155,311.071289 
	C119.856277,317.719788 109.289711,324.258698 98.001816,330.979675 
	C93.849663,331.117401 90.418831,331.073029 86.988007,331.028656 
	C86.419495,324.309723 85.850983,317.590790 85.403671,310.413757 
z"/>
<path fill="#50327C" opacity="1.000000" stroke="none" 
	d="
M415.790527,312.435425 
	C429.690430,311.774933 443.823517,311.383514 458.415588,310.991638 
	C458.939301,316.137909 459.520691,321.351929 458.862549,326.404449 
	C458.505035,329.149445 456.578033,332.923004 454.368591,333.836151 
	C452.289124,334.695526 448.693817,332.803497 446.147644,331.419006 
	C441.400452,328.837708 436.935547,325.738403 432.344055,322.869293 
	C426.908966,319.472992 421.464264,316.092102 415.790527,312.435425 
z"/>
<path fill="#5BBCD2" opacity="1.000000" stroke="none" 
	d="
M86.250648,173.931351 
	C86.084007,169.047989 85.917366,164.164642 85.579536,158.786072 
	C86.607758,155.938065 87.379021,152.085403 89.109093,151.591507 
	C91.572906,150.888168 95.032272,152.106628 97.553467,153.459763 
	C105.535561,157.743729 113.285965,162.460419 121.110413,167.036392 
	C122.967476,168.122467 124.763763,169.312469 126.609970,171.063416 
	C124.783859,172.447433 122.946007,173.863754 121.086037,173.893402 
	C109.476997,174.078476 97.862999,173.953568 86.250648,173.931351 
z"/>
<path fill="#57B0CA" opacity="1.000000" stroke="none" 
	d="
M86.203201,174.393005 
	C97.862999,173.953568 109.476997,174.078476 121.086037,173.893402 
	C122.946007,173.863754 124.783859,172.447433 126.812912,171.342743 
	C132.867294,174.489883 138.740692,177.966400 144.807327,181.718750 
	C144.713943,185.497833 142.052963,184.981613 139.803040,184.983932 
	C122.249039,185.001953 104.694984,184.982880 86.696442,184.959137 
	C86.219872,181.580246 86.187813,178.217438 86.203201,174.393005 
z"/>
<path fill="#4C4788" opacity="1.000000" stroke="none" 
	d="
M202.736206,284.242920 
	C204.396317,285.400543 205.697769,287.717041 207.116394,287.791168 
	C212.700974,288.082977 218.321732,287.615051 223.930496,287.546021 
	C226.040695,287.520050 228.154800,287.812164 230.671722,287.994568 
	C225.913849,293.905548 220.751373,299.781219 215.306793,305.831543 
	C206.480164,305.670563 197.927185,305.464142 189.397278,304.905304 
	C187.349503,304.771149 185.378433,303.466278 183.194977,302.370728 
	C189.489044,296.151581 195.960220,290.261536 202.736206,284.242920 
z"/>
<path fill="#4C4788" opacity="1.000000" stroke="none" 
	d="
M358.893646,303.467346 
	C357.777771,304.478271 356.491364,305.813477 355.132507,305.891846 
	C346.046570,306.415680 336.945160,306.671570 327.373505,307.021576 
	C321.882721,301.282379 316.867188,295.536041 311.698425,289.475464 
	C318.827728,289.106842 326.117737,289.218811 333.388153,288.893066 
	C335.475586,288.799561 337.506378,287.442261 339.766113,286.357849 
	C344.704163,290.532440 349.418488,295.035767 354.186920,299.481079 
	C355.609924,300.807678 357.184479,301.971680 358.893646,303.467346 
z"/>
<path fill="#4A73A4" opacity="1.000000" stroke="none" 
	d="
M296.233337,216.824707 
	C286.899658,216.987411 277.858917,217.099396 268.824921,216.903305 
	C267.140015,216.866730 265.481964,215.593552 263.643311,214.605652 
	C263.630737,209.840363 263.786377,205.360443 264.426086,200.527008 
	C269.957916,200.109741 275.005676,200.045990 280.053436,199.982224 
	C280.442444,203.872849 280.831482,207.763474 281.355988,213.009323 
	C286.900726,207.626328 291.667480,202.998611 296.940979,198.534485 
	C299.457123,199.464752 301.414948,200.448273 303.489349,200.941910 
	C305.946381,201.526611 308.503937,201.688965 311.017914,202.034378 
	C306.188171,206.912109 301.358398,211.789841 296.233337,216.824707 
z"/>
<path fill="#4E377E" opacity="1.000000" stroke="none" 
	d="
M284.708099,313.978577 
	C285.122009,320.685638 285.535919,327.392670 285.493347,334.585327 
	C276.170959,335.042694 267.305115,335.014435 258.439240,334.986206 
	C258.803680,327.895386 259.168121,320.804535 260.133057,313.355835 
	C268.725098,313.324799 276.716583,313.651703 284.708099,313.978577 
z"/>
<path fill="#4C4788" opacity="1.000000" stroke="none" 
	d="
M284.752197,313.546753 
	C276.716583,313.651703 268.725098,313.324799 260.297363,312.978851 
	C260.223938,305.589600 260.586731,298.219452 261.456604,290.422180 
	C269.017944,289.982819 276.072235,289.970551 283.126587,289.958313 
	C283.683136,297.677185 284.239716,305.396057 284.752197,313.546753 
z"/>
<path fill="#4E377E" opacity="1.000000" stroke="none" 
	d="
M163.281464,321.989471 
	C166.207504,322.526794 168.819412,323.816864 171.468491,323.898346 
	C180.359482,324.171753 189.263733,324.014099 198.640060,324.033112 
	C196.786835,327.143677 194.734268,330.509583 192.067001,333.284668 
	C186.876022,338.685486 182.099686,344.586273 172.933411,343.235779 
	C165.707840,342.171143 160.921829,338.172028 161.121414,330.761841 
	C161.198761,327.889374 162.332092,325.045410 163.281464,321.989471 
z"/>
<path fill="#4E377E" opacity="1.000000" stroke="none" 
	d="
M341.348022,324.307739 
	C350.999969,323.982605 360.703735,324.044739 370.406067,323.952667 
	C372.512604,323.932648 374.613922,323.359619 377.182007,322.957001 
	C380.591431,329.242157 379.484619,335.085876 375.161957,340.375366 
	C372.450287,343.693481 360.757599,344.856812 357.021973,341.429688 
	C351.406372,336.277832 346.568115,330.278625 341.348022,324.307739 
z"/>
<path fill="#4D8CB4" opacity="1.000000" stroke="none" 
	d="
M367.777405,158.750732 
	C362.929413,159.331131 357.852356,159.880463 352.768280,159.955902 
	C341.712891,160.119965 330.653961,160.042252 319.100403,160.085480 
	C318.524811,156.887131 318.445251,153.666702 318.616180,150.198654 
	C322.979065,150.300491 327.086395,150.849762 331.204987,150.953934 
	C337.864014,151.122360 344.536713,151.157379 351.189789,150.896225 
	C353.077332,150.822144 354.916840,149.524353 356.887329,148.424423 
	C362.270416,148.398529 363.698395,143.116989 367.693726,141.337830 
	C369.176392,142.458649 370.380249,143.134399 371.320190,144.074142 
	C372.339478,145.093338 373.112915,146.358398 373.993561,147.516235 
	C371.793427,149.721756 369.367493,151.757248 367.511322,154.221802 
	C366.829315,155.127335 367.494476,157.047455 367.777405,158.750732 
z"/>
<path fill="#4A518F" opacity="1.000000" stroke="none" 
	d="
M283.177551,289.495056 
	C276.072235,289.970551 269.017944,289.982819 261.541626,289.992645 
	C261.502319,281.617828 261.884949,273.245422 262.382538,264.414856 
	C268.669373,263.992249 274.841217,264.027802 281.420074,264.023834 
	C282.294220,272.333496 282.761353,280.682648 283.177551,289.495056 
z"/>
<path fill="#4F93B9" opacity="1.000000" stroke="none" 
	d="
M256.194122,131.347687 
	C266.423981,131.320892 276.659576,131.654007 287.351135,131.987640 
	C283.527649,138.381439 281.992615,145.555374 281.311218,153.581696 
	C274.866791,154.037079 268.910065,154.021606 262.953369,154.006134 
	C261.765289,146.251312 261.305908,138.275787 256.194122,131.347687 
z"/>
<path fill="#4C84AF" opacity="1.000000" stroke="none" 
	d="
M262.902344,154.464752 
	C268.910065,154.021606 274.866791,154.037079 281.216675,154.009888 
	C281.106262,163.677658 280.602631,173.388123 279.602356,183.581406 
	C274.145142,184.371857 269.184570,184.679459 264.223999,184.987076 
	C263.766449,174.965836 263.308899,164.944595 262.902344,154.464752 
z"/>
<path fill="#4C92B4" opacity="1.000000" stroke="none" 
	d="
M374.274414,147.382477 
	C373.112915,146.358398 372.339478,145.093338 371.320190,144.074142 
	C370.380249,143.134399 369.176392,142.458649 368.042419,141.293671 
	C368.220032,140.671844 368.444031,140.422928 369.184265,139.985382 
	C370.136749,138.967178 370.572998,138.137589 371.009277,137.308014 
	C376.603424,132.206696 382.263763,127.175629 387.775208,121.986435 
	C394.823730,115.350067 401.724335,108.556839 408.748108,101.893852 
	C411.084686,99.677307 413.604523,97.653999 416.127655,95.466873 
	C419.108032,97.919144 417.970337,99.995110 415.993652,102.127556 
	C407.376923,111.423500 398.770569,120.729210 390.192139,130.060501 
	C384.950104,135.762543 379.765625,141.517502 374.274414,147.382477 
z"/>
<path fill="#55ACC8" opacity="1.000000" stroke="none" 
	d="
M458.981018,187.560822 
	C439.747101,187.996338 420.623657,188.077179 401.502808,187.889786 
	C399.366943,187.868866 397.246033,186.324692 395.006104,185.099350 
	C399.017426,182.091125 403.140839,179.470459 407.716553,177.180954 
	C410.125275,178.341217 412.072418,179.862915 414.039520,179.889221 
	C428.980072,180.088913 443.924561,179.996017 458.867798,179.994339 
	C458.942596,182.371979 459.017426,184.749603 458.981018,187.560822 
z"/>
<path fill="#5BBCD2" opacity="1.000000" stroke="none" 
	d="
M421.723694,168.312332 
	C429.341095,163.794601 436.972839,159.300705 444.561432,154.735077 
	C445.788971,153.996552 446.762665,152.846466 447.960175,152.045914 
	C452.606598,148.939819 458.383423,151.793930 459.010956,157.703690 
	C459.375793,161.139359 459.093719,164.643723 458.709473,168.826019 
	C457.293243,170.006042 456.274567,170.875641 455.246674,170.886627 
	C445.314209,170.992920 435.378265,171.048553 425.449097,170.841110 
	C424.190216,170.814804 422.964691,169.194275 421.723694,168.312332 
z"/>
<path fill="#50327C" opacity="1.000000" stroke="none" 
	d="
M258.325104,335.440002 
	C267.305115,335.014435 276.170959,335.042694 285.446320,335.034790 
	C286.215851,340.363190 286.575867,345.727753 286.468445,351.554504 
	C276.516602,351.998779 267.032135,351.980835 257.547699,351.962921 
	C257.768799,346.606567 257.989899,341.250183 258.325104,335.440002 
z"/>
<path fill="#509CBE" opacity="1.000000" stroke="none" 
	d="
M358.243134,122.952560 
	C355.006165,122.062523 352.040405,121.134636 348.940521,119.832191 
	C349.482269,119.058708 350.158173,118.659775 351.357361,118.044800 
	C352.255463,117.243874 352.630310,116.658981 353.005127,116.074089 
	C353.352600,115.811218 353.700104,115.548355 354.579651,115.025116 
	C355.390350,114.133644 355.668915,113.502533 355.947510,112.871429 
	C360.676117,108.842850 365.443909,104.859154 370.123810,100.774757 
	C376.514435,95.197304 382.803009,89.502747 389.206970,83.940872 
	C391.963226,81.547096 394.899170,79.360222 397.809357,77.034683 
	C400.788269,79.434021 399.761627,81.657181 397.778839,83.690811 
	C390.914978,90.730736 384.000824,97.721901 377.078461,104.704498 
	C372.886322,108.933159 368.664642,113.133232 364.407013,117.295807 
	C363.484711,118.197540 362.351532,118.883575 360.727509,119.924797 
	C359.749298,120.990051 359.359009,121.799469 358.968750,122.608879 
	C358.817322,122.710823 358.665863,122.812767 358.243134,122.952560 
z"/>
<path fill="#58B4CD" opacity="1.000000" stroke="none" 
	d="
M421.362549,168.379669 
	C422.964691,169.194275 424.190216,170.814804 425.449097,170.841110 
	C435.378265,171.048553 445.314209,170.992920 455.246674,170.886627 
	C456.274567,170.875641 457.293243,170.006042 458.595917,169.279510 
	C458.948090,172.383667 459.020538,175.743149 458.980408,179.548492 
	C443.924561,179.996017 428.980072,180.088913 414.039520,179.889221 
	C412.072418,179.862915 410.125275,178.341217 408.070679,177.124664 
	C412.315491,173.973816 416.658478,171.210403 421.362549,168.379669 
z"/>
<path fill="#509CBE" opacity="1.000000" stroke="none" 
	d="
M373.388336,127.000351 
	C366.245575,128.577438 365.764740,128.360519 365.947906,123.449371 
	C366.376495,122.842087 366.744110,122.571609 367.647339,122.028946 
	C368.440369,121.133575 368.697815,120.510399 368.955261,119.887222 
	C369.822418,119.350494 370.689575,118.813774 372.127930,118.067368 
	C373.133240,117.239830 373.567322,116.621986 374.001404,116.004143 
	C379.168610,111.109581 384.362823,106.243134 389.494995,101.312073 
	C394.118622,96.869629 398.564758,92.233910 403.341064,87.965240 
	C404.457886,86.967102 406.592163,87.107368 408.715515,87.378113 
	C401.490540,100.244690 389.384796,108.594025 379.717407,119.846848 
	C378.757172,120.947990 378.361847,121.767273 377.966553,122.586563 
	C377.820892,122.694138 377.675262,122.801712 376.955078,123.042381 
	C375.900970,124.061241 375.421417,124.946991 374.941864,125.832748 
	C374.521362,126.209236 374.100861,126.585709 373.388336,127.000351 
z"/>
<path fill="#502B76" opacity="1.000000" stroke="none" 
	d="
M257.460297,352.341675 
	C267.032135,351.980835 276.516602,351.998779 286.415649,352.002502 
	C286.661835,362.637512 278.704834,372.167206 267.177307,367.964935 
	C260.486359,365.525848 257.990601,359.516235 257.460297,352.341675 
z"/>
<path fill="#4C92B4" opacity="1.000000" stroke="none" 
	d="
M395.474091,144.084961 
	C392.630463,143.890350 388.722809,147.374771 387.964722,141.216949 
	C388.071136,140.647339 388.198822,140.474762 388.800659,139.999603 
	C389.506226,139.106339 389.737640,138.515671 389.969055,137.925018 
	C390.721680,137.378738 391.474304,136.832474 392.735779,136.019257 
	C393.496735,135.231171 393.748840,134.710052 394.000977,134.188934 
	C403.116486,124.973984 412.175568,115.701500 421.424530,106.622475 
	C422.489471,105.577057 424.612518,105.609512 426.244965,105.142235 
	C425.999390,106.672928 426.274994,108.635574 425.422913,109.663544 
	C420.259796,115.892464 414.828888,121.899002 409.509003,127.998596 
	C406.731110,131.183685 403.997101,134.407028 400.686584,137.914307 
	C399.748291,139.022446 399.366669,139.829391 398.985046,140.636322 
	C398.854401,140.742203 398.723785,140.848099 398.037201,141.077606 
	C396.984833,142.061188 396.488373,142.921127 395.991943,143.781067 
	C395.991943,143.781067 395.680878,144.058624 395.474091,144.084961 
z"/>
<path fill="#4B75A6" opacity="1.000000" stroke="none" 
	d="
M311.325165,201.904297 
	C308.503937,201.688965 305.946381,201.526611 303.489349,200.941910 
	C301.414948,200.448273 299.457123,199.464752 297.243713,198.396637 
	C301.342316,193.418671 305.644897,188.742142 310.225159,183.913757 
	C314.271362,184.509064 318.020050,185.391342 321.816345,185.950134 
	C323.925690,186.260620 326.114471,186.031433 328.750610,186.071732 
	C323.366638,191.323395 317.499542,196.548798 311.325165,201.904297 
z"/>
<path fill="#4B7CA9" opacity="1.000000" stroke="none" 
	d="
M264.149109,185.448792 
	C269.184570,184.679459 274.145142,184.371857 279.519531,184.030029 
	C280.027618,189.018066 280.121857,194.040329 280.134766,199.522400 
	C275.005676,200.045990 269.957916,200.109741 264.512268,200.083847 
	C264.100983,195.299637 264.087616,190.605072 264.149109,185.448792 
z"/>
<path fill="#3F2E66" opacity="1.000000" stroke="none" 
	d="
M87.015152,331.389954 
	C90.418831,331.073029 93.849663,331.117401 97.672089,331.107666 
	C94.374641,335.921387 90.657249,336.156708 87.015152,331.389954 
z"/>
<path fill="#53A4C3" opacity="1.000000" stroke="none" 
	d="
M234.879852,74.234749 
	C235.098480,74.885567 235.183105,75.764313 235.057281,76.849739 
	C234.813156,76.191841 234.779495,75.327255 234.879852,74.234749 
z"/>
<path fill="#53A4C3" opacity="1.000000" stroke="none" 
	d="
M234.600098,85.269318 
	C234.939651,85.855225 235.149658,86.730835 235.182343,87.801926 
	C234.826859,87.184608 234.648712,86.371811 234.600098,85.269318 
z"/>
<path fill="#4D8CB4" opacity="1.000000" stroke="none" 
	d="
M321.733459,144.387039 
	C321.639618,145.130463 321.268372,145.949387 320.641571,146.885941 
	C320.742706,146.156555 321.099396,145.309555 321.733459,144.387039 
z"/>
<path fill="#4D88B2" opacity="1.000000" stroke="none" 
	d="
M396.297058,143.716309 
	C396.488373,142.921127 396.984833,142.061188 397.788483,141.119598 
	C397.597839,141.909164 397.099976,142.780350 396.297058,143.716309 
z"/>
<path fill="#4D88B2" opacity="1.000000" stroke="none" 
	d="
M399.258270,140.556320 
	C399.366669,139.829391 399.748291,139.022446 400.387665,138.107330 
	C400.274109,138.824860 399.902802,139.650589 399.258270,140.556320 
z"/>
<path fill="#4D8CB4" opacity="1.000000" stroke="none" 
	d="
M370.718811,137.381470 
	C370.572998,138.137589 370.136749,138.967178 369.421295,139.896545 
	C369.570831,139.149185 369.999603,138.302048 370.718811,137.381470 
z"/>
<path fill="#4C92B4" opacity="1.000000" stroke="none" 
	d="
M375.230286,125.724602 
	C375.421417,124.946991 375.900970,124.061241 376.687103,123.086601 
	C376.502014,123.870636 376.010345,124.743546 375.230286,125.724602 
z"/>
<path fill="#4C92B4" opacity="1.000000" stroke="none" 
	d="
M378.240662,122.499115 
	C378.361847,121.767273 378.757172,120.947990 379.416565,120.019348 
	C379.292053,120.743889 378.903412,121.577782 378.240662,122.499115 
z"/>
<path fill="#4C92B4" opacity="1.000000" stroke="none" 
	d="
M359.244873,122.532532 
	C359.359009,121.799469 359.749298,120.990051 360.403564,120.081429 
	C360.285400,120.806877 359.903168,121.631531 359.244873,122.532532 
z"/>
<path fill="#4F97BA" opacity="1.000000" stroke="none" 
	d="
M135.402039,116.288643 
	C135.868454,116.842812 136.398834,117.708084 136.914825,118.906921 
	C136.422287,118.360237 135.944138,117.479996 135.402039,116.288643 
z"/>
<path fill="#4C92B4" opacity="1.000000" stroke="none" 
	d="
M368.696411,119.970459 
	C368.697815,120.510399 368.440369,121.133575 367.961853,121.893852 
	C367.972992,121.371872 368.205231,120.712784 368.696411,119.970459 
z"/>
<path fill="#58B4CD" opacity="1.000000" stroke="none" 
	d="
M307.478882,61.752922 
	C307.186981,61.448524 306.958344,60.874111 306.887268,60.140995 
	C307.210602,60.482498 307.376373,60.982704 307.478882,61.752922 
z"/>
<path fill="#53A4C3" opacity="1.000000" stroke="none" 
	d="
M235.409027,93.251038 
	C235.781647,93.528458 236.070419,94.076248 236.222275,94.796188 
	C235.831970,94.486031 235.578568,94.003708 235.409027,93.251038 
z"/>
<path fill="#4C92B4" opacity="1.000000" stroke="none" 
	d="
M355.681793,112.951828 
	C355.668915,113.502533 355.390350,114.133644 354.880310,114.897018 
	C354.904602,114.363602 355.160339,113.697914 355.681793,112.951828 
z"/>
<path fill="#4F97BA" opacity="1.000000" stroke="none" 
	d="
M165.915771,117.690559 
	C165.363968,117.503426 164.779358,116.988525 164.122986,116.172760 
	C164.661804,116.368866 165.272385,116.865829 165.915771,117.690559 
z"/>
<path fill="#4C92B4" opacity="1.000000" stroke="none" 
	d="
M352.711945,116.082352 
	C352.630310,116.658981 352.255463,117.243874 351.628357,117.924828 
	C351.723633,117.377464 352.071198,116.734039 352.711945,116.082352 
z"/>
<path fill="#4C92B4" opacity="1.000000" stroke="none" 
	d="
M373.684631,116.021088 
	C373.567322,116.621986 373.133240,117.239830 372.419800,117.952065 
	C372.549591,117.376984 372.958740,116.707512 373.684631,116.021088 
z"/>
<path fill="#4D88B2" opacity="1.000000" stroke="none" 
	d="
M393.753510,134.215057 
	C393.748840,134.710052 393.496735,135.231171 393.061615,135.877167 
	C393.087769,135.415100 393.296906,134.828156 393.753510,134.215057 
z"/>
<path fill="#4D88B2" opacity="1.000000" stroke="none" 
	d="
M389.723206,138.009583 
	C389.737640,138.515671 389.506226,139.106339 389.084106,139.846863 
	C389.088074,139.362518 389.282745,138.728333 389.723206,138.009583 
z"/>
<path fill="#4D8CB4" opacity="1.000000" stroke="none" 
	d="
M150.690643,145.252426 
	C151.050323,145.593399 151.384735,146.212006 151.660950,147.110641 
	C151.290283,146.770462 150.977814,146.150269 150.690643,145.252426 
z"/>
<path fill="#4B75A6" opacity="1.000000" stroke="none" 
	d="
M336.276703,183.952896 
	C336.662018,183.803268 337.244720,183.836716 337.928711,184.048065 
	C337.511383,184.195969 336.992737,184.165970 336.276703,183.952896 
z"/>
<path fill="#4B75A6" opacity="1.000000" stroke="none" 
	d="
M346.262390,186.016663 
	C346.636230,185.838928 347.220245,185.827286 347.915466,185.987823 
	C347.508606,186.167603 346.990631,186.175186 346.262390,186.016663 
z"/>
<path fill="#4A518F" opacity="1.000000" stroke="none" 
	d="
M282.300476,257.525848 
	C282.322540,257.395569 282.574402,257.418091 282.919098,257.618256 
	C283.023254,257.700714 282.541565,257.583435 282.300476,257.525848 
z"/>
</svg>