<svg version="1.1" id="Layer_1" xmlns="http://www.w3.org/2000/svg" xmlns:xlink="http://www.w3.org/1999/xlink" x="0px" y="0px"
	 width="100%" viewBox="0 0 903 255" enable-background="new 0 0 903 255" xml:space="preserve">
<path fill="#E7F5F3" opacity="1.000000" stroke="none" 
	d="
M650.000000,256.000000 
	C433.333344,256.000000 217.166672,256.000000 1.000000,256.000000 
	C1.000000,171.000000 1.000000,86.000000 1.000000,1.000000 
	C302.000000,1.000000 603.000000,1.000000 904.000000,1.000000 
	C904.000000,86.000000 904.000000,171.000000 904.000000,256.000000 
	C819.500000,256.000000 735.000000,256.000000 650.000000,256.000000 
M297.523804,123.500244 
	C297.523438,116.670914 297.130493,109.810692 297.664581,103.023415 
	C298.004913,98.698608 298.873871,93.990242 301.005035,90.325768 
	C304.703735,83.965958 313.121124,81.548203 319.816681,83.745697 
	C327.323181,86.209328 331.926117,92.239021 331.966278,100.114975 
	C332.048645,116.271858 331.954956,132.429565 332.010529,148.586685 
	C332.030914,154.512802 335.160706,158.101837 339.942871,158.003906 
	C344.797729,157.904465 347.490265,154.781631 347.506714,148.940109 
	C347.551697,132.949509 347.411285,116.957756 347.547424,100.968185 
	C347.760986,75.880661 322.712097,60.729702 301.926300,70.126312 
	C297.492889,72.130516 293.664001,75.471931 289.528564,78.215927 
	C277.035950,66.394234 263.049103,63.719460 247.501312,72.047081 
	C243.304398,65.782684 239.749023,64.048927 235.585693,67.464287 
	C233.322571,69.320824 231.691528,73.271690 231.650726,76.303169 
	C231.334610,99.785294 231.472824,123.273582 231.486908,146.759964 
	C231.487610,147.919006 231.592758,149.083954 231.733231,150.235931 
	C232.372818,155.481110 235.076141,158.186951 239.574646,158.129562 
	C244.050461,158.072479 247.112717,154.739395 247.145966,149.452682 
	C247.230789,135.961029 247.118759,122.468109 247.214066,108.976601 
	C247.240982,105.166908 247.494568,101.330208 248.018951,97.557983 
	C249.610611,86.108025 261.684448,79.803307 272.054504,84.802277 
	C279.212585,88.252892 281.961609,94.211411 281.979462,101.756386 
	C282.015717,117.080750 281.977814,132.405273 281.996582,147.729706 
	C282.005371,154.901047 284.487122,158.090286 289.897949,158.004654 
	C295.047119,157.923157 297.503876,154.717163 297.519562,147.986603 
	C297.537781,140.157852 297.523743,132.329041 297.523804,123.500244 
M723.860901,140.608200 
	C730.665833,149.319412 739.537415,154.845139 750.293213,157.092484 
	C764.443359,160.049042 777.164978,156.351364 788.665955,147.520645 
	C789.812073,155.363373 792.390869,158.354538 797.403259,158.112122 
	C801.796753,157.899658 804.781982,154.531830 804.799927,149.112793 
	C804.880371,124.792892 804.881409,100.472420 804.799683,76.152519 
	C804.781494,70.733887 801.811523,67.540665 797.257202,67.390862 
	C792.912537,67.247948 789.940063,70.014206 789.089844,75.023758 
	C788.940796,75.901772 788.889282,76.796341 788.770691,77.885956 
	C766.845337,61.316277 742.231262,65.586365 726.683411,81.397812 
	C710.980469,97.366982 709.740967,122.456268 723.860901,140.608200 
M552.748901,144.750443 
	C572.269775,161.894302 592.737488,162.352219 614.168762,147.869156 
	C614.394043,148.794876 614.580627,149.407440 614.689636,150.033539 
	C615.682922,155.737549 618.323364,158.337463 622.882996,158.080566 
	C627.418274,157.825027 630.134399,154.638596 630.145935,149.125214 
	C630.195862,125.304359 630.173279,101.483330 630.162476,77.662369 
	C630.159485,71.097031 627.558228,67.375298 622.709412,67.283478 
	C618.815063,67.209724 613.965759,70.517601 614.350586,76.502464 
	C614.365112,76.728645 613.970459,76.981140 613.655884,77.351448 
	C612.681396,76.784477 611.632080,76.284683 610.703064,75.617302 
	C586.275391,58.069016 550.752991,70.066353 541.835083,98.676544 
	C536.424988,116.032967 540.543579,130.940277 552.748901,144.750443 
M382.198639,147.265320 
	C399.567108,162.659760 426.717194,162.039093 443.626953,144.034714 
	C458.482574,128.217453 460.435791,108.794106 449.904144,89.995041 
	C438.276031,69.238777 412.397156,61.382759 391.428436,71.934120 
	C375.551147,79.923515 366.501831,93.043129 365.748505,111.048683 
	C365.146301,125.442657 370.495941,137.509796 382.198639,147.265320 
M170.513107,157.850113 
	C190.276062,157.070419 204.328217,144.506409 205.539078,124.869865 
	C206.531937,108.768982 205.989044,92.566803 205.914383,76.410507 
	C205.890442,71.229095 202.519592,68.002640 197.993408,67.995415 
	C193.551224,67.988327 190.512695,71.387405 190.487411,76.739609 
	C190.422104,90.569885 190.484619,104.400734 190.445862,118.231209 
	C190.439346,120.554268 190.325699,122.896042 190.015320,125.195938 
	C188.642563,135.367737 180.265213,142.206268 169.884125,142.017532 
	C160.953796,141.855164 151.695770,133.009613 151.775574,124.150269 
	C151.909073,109.330627 151.657593,94.507111 151.511795,79.685783 
	C151.490646,77.536705 151.783768,75.030182 150.808517,73.335190 
	C149.608765,71.250084 147.402435,68.764313 145.315720,68.431900 
	C143.010193,68.064621 139.686386,69.302483 138.031738,71.021202 
	C136.466507,72.647057 135.941605,75.795120 135.906662,78.286980 
	C135.715088,91.948242 135.810455,105.613594 135.815796,119.277542 
	C135.824554,141.740463 147.355179,154.882523 170.513107,157.850113 
M70.083130,158.015152 
	C84.734116,158.070328 99.385071,158.142273 114.036110,158.174026 
	C122.003136,158.191299 126.120033,155.397888 125.928391,150.200302 
	C125.742744,145.165390 121.951447,142.820419 113.988159,142.819580 
	C102.375740,142.818359 90.763321,142.819275 78.529076,142.819275 
	C78.529076,140.376068 78.529076,138.432968 78.529076,136.489883 
	C78.529060,101.355240 78.534515,66.220596 78.514656,31.085964 
	C78.513527,29.098221 78.442123,27.091032 78.162880,25.127098 
	C77.626114,21.352118 75.313774,19.317873 71.536453,18.977797 
	C66.189537,18.496407 63.008305,21.992428 63.003223,28.614050 
	C62.972565,68.577599 63.018143,108.541237 62.947487,148.504684 
	C62.939140,153.225159 64.570023,156.501007 70.083130,158.015152 
M527.176941,79.447083 
	C519.771667,66.400482 506.856140,63.514450 493.306305,71.888451 
	C490.863220,68.743408 488.203491,66.227493 483.695160,67.738052 
	C479.116302,69.272255 477.918304,72.671761 477.967865,77.070824 
	C478.063568,85.565865 477.995758,94.062737 477.995758,102.558853 
	C477.995728,118.051773 477.946228,133.544922 478.019104,149.037506 
	C478.049805,155.565857 482.770752,159.611801 488.225677,157.708405 
	C492.570831,156.192215 493.893524,152.613098 493.871155,148.192322 
	C493.788605,131.866867 493.818329,115.540695 493.862549,99.214951 
	C493.868378,97.066154 493.993896,94.875107 494.427155,92.778694 
	C495.412659,88.010750 499.947449,83.889305 504.539276,82.973602 
	C509.690613,81.946335 512.082825,85.210724 514.427002,88.831535 
	C515.308777,90.193504 516.289795,91.993134 517.620361,92.454277 
	C520.103516,93.314934 523.697510,94.539375 525.324951,93.421837 
	C527.492615,91.933350 528.710815,88.467941 529.382690,85.626144 
	C529.763977,84.013069 528.239380,81.949440 527.176941,79.447083 
M836.835876,145.388336 
	C836.886841,147.385284 836.723206,149.416214 837.032959,151.372177 
	C837.693176,155.541000 840.364929,157.995224 844.510437,158.041122 
	C848.591492,158.086319 851.435669,155.914612 852.117188,151.648956 
	C852.403870,149.854385 852.471008,148.009399 852.473389,146.187134 
	C852.497803,127.523499 852.489563,108.859818 852.487549,90.196152 
	C852.487061,85.530304 852.853088,80.820969 852.321594,76.215759 
	C852.027527,73.667549 850.829590,70.454308 848.927185,69.079628 
	C847.063171,67.732681 843.519104,67.516266 841.197144,68.279160 
	C837.763916,69.407188 836.795044,72.777969 836.805847,76.427856 
	C836.872864,99.090675 836.837341,121.753792 836.835876,145.388336 
M849.272644,35.781494 
	C840.149841,31.739883 832.956299,39.672794 834.476013,46.490158 
	C835.513123,51.142490 838.918335,54.475758 843.450989,54.989571 
	C848.039734,55.509750 852.290222,52.950962 854.078369,48.592018 
	C856.009155,43.885300 854.764404,40.083332 849.272644,35.781494 
M639.923584,192.775177 
	C639.248352,190.925613 638.834473,188.921478 637.849121,187.255310 
	C634.797607,182.095291 628.822998,180.362656 623.113281,182.752304 
	C617.633911,185.045532 614.587219,190.873398 615.912842,196.525528 
	C617.250977,202.231384 622.667786,206.596451 628.361267,205.814804 
	C632.270264,205.278137 636.036194,203.668030 639.982666,205.506317 
	C640.022217,205.524750 640.295471,205.041489 640.555481,204.647034 
	C639.663086,203.553802 638.738403,202.420975 638.049377,201.576889 
	C638.726868,198.694794 639.326355,196.144623 639.923584,192.775177 
M306.890106,182.726562 
	C306.550323,187.908173 306.210571,193.089767 305.831238,198.874100 
	C300.467957,193.503662 298.405884,185.881317 291.473633,180.919846 
	C291.473633,190.284592 291.473633,197.895721 291.473633,205.506851 
	C292.158356,205.578903 292.843109,205.650970 293.527832,205.723022 
	C294.568665,200.445007 293.462189,194.823975 294.320953,188.099442 
	C298.244904,193.967896 301.342072,198.788361 304.675171,203.439758 
	C305.421753,204.481598 306.994720,204.931259 308.187225,205.653564 
	C308.710846,204.423187 309.647125,203.205826 309.686462,201.960144 
	C309.854614,196.637405 309.888672,191.300674 309.660065,185.982452 
	C309.607269,184.754089 308.325256,183.578537 306.890106,182.726562 
M338.812531,185.268219 
	C340.419891,185.709427 342.027252,186.150635 343.634613,186.591843 
	C338.175171,180.592148 332.883484,180.481827 327.925262,184.905167 
	C323.513580,188.840912 322.591431,195.304993 325.734955,200.259094 
	C328.971313,205.359528 335.032288,207.296341 340.482971,204.971817 
	C346.289246,202.495651 347.248871,199.656464 345.179352,190.829712 
	C344.583923,190.757812 343.908173,190.518967 343.295929,190.630066 
	C340.916656,191.061844 338.557587,191.604797 336.190979,192.106369 
	C338.298737,192.857376 340.406494,193.608383 342.514252,194.359406 
	C343.353302,200.935532 338.739380,204.605103 332.721375,202.147934 
	C328.819794,200.554916 326.360016,196.132324 327.194977,192.106522 
	C328.148132,187.510757 332.688660,183.604172 338.812531,185.268219 
M180.932922,182.392532 
	C174.859497,185.168716 171.923416,189.906525 172.751022,195.595306 
	C173.529099,200.943588 177.932632,205.204575 183.405716,205.851044 
	C188.583527,206.462646 192.397095,204.129288 195.110687,199.976303 
	C197.965302,195.607452 197.437180,191.090088 194.655533,186.928680 
	C191.542206,182.271118 186.984818,180.954880 180.932922,182.392532 
M444.724182,182.215759 
	C442.664368,182.321320 440.156219,181.585175 440.202850,185.128036 
	C440.281616,191.119461 440.132996,197.115677 440.326416,203.101898 
	C440.355621,204.005875 441.658417,205.560669 442.469696,205.627380 
	C445.941681,205.912903 449.454407,205.843292 452.941925,205.681335 
	C453.639587,205.648956 454.292145,204.646439 454.965515,204.091263 
	C454.270325,203.571686 453.599335,202.647003 452.875702,202.603760 
	C449.986450,202.431061 447.080780,202.532501 444.145203,202.532501 
	C444.145203,199.116470 444.145203,196.710678 444.145203,194.379761 
	C447.688599,193.813644 450.872406,193.304977 454.056213,192.796295 
	C453.964447,192.131775 453.872711,191.467239 453.780945,190.802719 
	C451.388611,190.694458 448.944427,190.838821 446.627350,190.363678 
	C445.581970,190.149292 444.789734,188.700699 443.882660,187.812073 
	C444.748749,187.051056 445.532318,185.790894 446.497803,185.631348 
	C448.606812,185.282883 450.838379,185.697464 452.958313,185.384109 
	C453.917450,185.242325 454.729858,184.107971 455.608795,183.423920 
	C455.416779,183.021255 455.224731,182.618607 455.032715,182.215942 
	C451.905701,182.215942 448.778717,182.215942 444.724182,182.215759 
M700.644714,182.235580 
	C687.217224,182.164886 687.165100,182.165237 687.254944,195.631500 
	C687.276550,198.872833 686.906311,204.423035 688.209656,204.909363 
	C691.857666,206.270645 696.287903,205.611938 700.406250,205.545319 
	C700.957703,205.536377 701.489990,204.344940 702.735352,202.863266 
	C698.271790,202.602737 694.773499,202.398544 691.241699,202.192398 
	C691.241699,199.141144 691.241699,196.619827 691.241699,194.222305 
	C694.833252,193.797684 697.950745,193.429123 701.068176,193.060562 
	C701.011719,192.342255 700.955322,191.623962 700.898865,190.905655 
	C698.551086,190.765213 696.155640,190.855804 693.875977,190.385193 
	C692.765564,190.155960 691.871338,188.879028 690.879272,188.076340 
	C691.820129,187.223526 692.657593,185.838074 693.723816,185.631149 
	C695.808167,185.226578 698.061340,185.703400 700.153076,185.318283 
	C700.740723,185.210083 701.009338,183.369766 700.644714,182.235580 
M472.391663,203.611832 
	C472.409790,201.449493 472.257202,199.266449 472.515686,197.133240 
	C472.651642,196.011368 473.506531,194.976608 474.036804,193.902512 
	C475.088562,194.546402 476.399261,194.976089 477.142883,195.874924 
	C479.257446,198.430893 481.025574,201.276093 483.172516,203.801300 
	C484.011292,204.787842 485.496765,205.224594 486.687683,205.911743 
	C486.925110,205.591019 487.162537,205.270309 487.399963,204.949600 
	C484.790894,201.199707 482.181793,197.449829 479.572693,193.699936 
	C480.143829,193.687714 480.714996,193.675476 481.286133,193.663239 
	C481.648285,190.851227 483.232239,187.373474 482.133698,185.357330 
	C479.318054,180.189835 474.113892,182.659073 469.269806,182.400360 
	C469.269806,189.841721 469.187469,196.635406 469.313995,203.425186 
	C469.358978,205.838440 470.519958,206.371857 472.391663,203.611832 
M725.110168,197.224609 
	C728.119812,199.706848 728.673950,204.900253 734.253967,204.757172 
	C731.606506,201.027206 728.959045,197.297226 726.276489,193.517715 
	C729.400085,191.390884 731.378845,188.923798 729.164124,185.164352 
	C727.293274,181.988647 722.211487,181.253036 716.545593,183.234833 
	C715.431213,195.396606 715.957031,203.276825 718.947693,206.534103 
	C719.147095,203.153442 719.147766,200.658585 719.493469,198.212509 
	C719.700806,196.745636 720.447327,195.354965 720.951477,193.930023 
	C722.198425,194.813782 723.445374,195.697556 725.110168,197.224609 
M382.060333,196.636688 
	C381.828400,192.575607 384.910950,194.056519 386.921143,193.714981 
	C388.748596,193.404480 390.567169,193.042053 392.389679,192.702515 
	C392.275726,192.089890 392.161774,191.477249 392.047821,190.864624 
	C388.856934,190.685196 385.666016,190.505768 382.609955,190.333923 
	C381.407837,186.715073 382.314697,185.131958 385.860046,185.385483 
	C387.678986,185.515533 389.540039,185.575073 391.333466,185.322113 
	C392.213287,185.198044 392.982361,184.288757 393.801575,183.734848 
	C393.070251,183.255997 392.351837,182.387756 391.605499,182.363022 
	C387.510162,182.227310 383.407990,182.298279 379.252686,182.298279 
	C379.252686,190.395462 379.252686,197.793182 379.252686,204.947632 
	C384.269226,204.947632 388.938202,204.947632 393.607178,204.947632 
	C393.633667,204.333588 393.660156,203.719528 393.686615,203.105484 
	C389.967987,202.816742 386.249329,202.528015 382.302521,202.221573 
	C382.211670,200.510117 382.133820,199.044052 382.060333,196.636688 
M144.755264,192.656006 
	C146.709366,193.482010 148.666550,194.300827 150.616776,195.135849 
	C153.017593,196.163803 157.141174,196.099258 155.781281,200.159348 
	C154.515213,203.939316 150.877060,202.556778 148.029373,201.973587 
	C147.125565,201.788483 146.395813,200.668381 145.503326,200.535873 
	C144.536301,200.392334 143.472305,200.902237 142.450592,201.127167 
	C142.409714,201.767136 142.368835,202.407104 142.327957,203.047073 
	C145.651886,204.004608 148.948074,205.596512 152.307434,205.743362 
	C155.748337,205.893768 158.668991,203.938660 159.185867,199.921204 
	C159.684448,196.046112 157.211197,194.165741 154.153137,192.899597 
	C152.644516,192.274963 150.763275,192.438660 149.377228,191.662476 
	C148.118195,190.957397 147.301682,189.462112 146.290085,188.315201 
	C147.685791,187.357300 148.972519,185.959854 150.511139,185.578308 
	C151.779678,185.263748 153.331787,186.245422 154.786255,186.475937 
	C155.816238,186.639175 156.892960,186.507568 158.928162,186.507568 
	C153.906158,181.736359 149.769836,181.009613 146.056503,183.537415 
	C142.736908,185.797180 142.181473,188.689117 144.755264,192.656006 
M426.840668,183.057205 
	C423.342438,181.215790 423.410858,184.642609 422.726868,186.168365 
	C420.808960,190.446625 419.284393,194.901215 417.133209,200.516846 
	C415.206940,195.999344 413.839325,192.890793 412.550781,189.749817 
	C409.746735,182.914780 409.763184,182.908035 406.706635,183.043015 
	C409.436829,190.075943 412.076447,196.979904 414.836060,203.835526 
	C415.138367,204.586487 416.411133,205.694351 416.750732,205.544205 
	C417.817200,205.072693 419.102356,204.260086 419.505005,203.258759 
	C422.097382,196.811920 424.477173,190.279602 426.840668,183.057205 
M247.226517,205.575424 
	C250.559006,198.034424 253.891495,190.493423 257.223999,182.952408 
	C256.509521,182.613327 255.795059,182.274231 255.080597,181.935135 
	C250.461975,186.922638 250.154434,194.298904 246.332993,200.283768 
	C244.899597,196.693192 243.577866,193.493607 242.341034,190.261536 
	C239.542923,182.949600 239.559967,182.943085 236.170227,183.010345 
	C239.017487,190.251404 241.758698,197.312378 244.614563,204.326675 
	C244.859985,204.929504 245.865692,205.222778 247.226517,205.575424 
M558.297302,185.311508 
	C557.709656,182.594284 555.619446,180.745514 554.155029,183.669113 
	C550.737427,190.492035 548.336426,197.824188 545.523682,204.950089 
	C546.056885,205.248199 546.590088,205.546295 547.123291,205.844391 
	C548.000610,204.762833 549.330017,203.804535 549.665283,202.575180 
	C550.473145,199.612778 552.130920,198.681870 555.097656,198.848083 
	C558.101562,199.016357 561.115173,198.402802 561.950928,202.656738 
	C562.190491,203.876083 563.807190,204.824860 564.792480,205.897705 
	C565.205688,205.567886 565.618835,205.238068 566.032043,204.908249 
	C563.553345,198.606735 561.074646,192.305237 558.297302,185.311508 
M668.915405,196.793350 
	C668.129028,200.376892 666.351990,203.363327 662.293945,202.743866 
	C658.157532,202.112427 656.998840,198.842148 657.171021,194.878464 
	C657.347778,190.808289 657.210205,186.724426 657.210205,181.835083 
	C655.603271,182.761902 654.377319,183.152084 654.386414,183.511078 
	C654.532288,189.291168 654.241333,195.191757 655.412292,200.779419 
	C655.844788,202.843140 659.738281,205.372437 662.171204,205.503723 
	C664.801697,205.645645 668.757690,203.948608 670.051941,201.799149 
	C673.692566,195.752686 671.794617,188.982300 671.456421,182.486313 
	C670.721497,182.430389 669.986572,182.374451 669.251709,182.318527 
	C669.148132,186.850662 669.044556,191.382797 668.915405,196.793350 
M210.573807,194.506989 
	C210.573807,198.106049 210.573807,201.705109 210.573807,204.945023 
	C216.328766,204.945023 221.474548,204.945023 226.620331,204.945023 
	C226.635330,204.329971 226.650330,203.714935 226.665329,203.099884 
	C222.627686,202.806076 218.590057,202.512268 213.857849,202.167908 
	C213.857849,195.527573 213.857849,189.033127 213.857849,182.538681 
	C213.321442,182.396118 212.785034,182.253540 212.248627,182.110977 
	C211.692368,183.268784 210.767410,184.392151 210.655350,185.591461 
	C210.409882,188.218658 210.576523,190.884354 210.573807,194.506989 
M505.590332,205.641830 
	C506.320312,204.460373 507.817596,203.158844 507.654541,202.117157 
	C506.666687,195.804810 509.314362,190.922699 513.104309,186.338455 
	C513.895386,185.381592 514.484070,184.257370 515.702454,182.386551 
	C509.649139,182.295410 509.526398,188.039642 506.225281,189.731964 
	C502.726990,188.277481 502.499695,182.303314 497.520050,182.814682 
	C499.293365,186.616592 502.294037,189.582291 503.544373,193.159744 
	C504.799316,196.750443 504.306824,200.951126 504.595123,204.883362 
	C504.605560,205.025162 504.774872,205.155304 505.590332,205.641830 
M752.590820,205.638046 
	C753.318909,204.446167 754.818298,203.130219 754.649780,202.082565 
	C753.557678,195.294052 756.723511,190.247086 760.773682,185.430618 
	C761.353027,184.741684 761.652954,183.817749 762.401367,182.396332 
	C756.541382,182.155350 756.691101,188.408279 752.971985,189.676147 
	C746.814453,183.661407 745.717041,182.824051 743.213257,183.271942 
	C750.583862,189.204956 751.576111,197.128052 752.590820,205.638046 
M580.100220,197.414856 
	C580.100220,200.107742 580.100220,202.800629 580.100220,206.192291 
	C583.464966,203.670532 584.278198,189.988876 581.634583,182.556290 
	C579.238281,186.862732 580.493286,191.795685 580.100220,197.414856 
M274.202179,203.013107 
	C274.202179,196.203400 274.202179,189.393692 274.202179,181.761353 
	C272.547211,182.680084 271.554291,182.965134 271.546631,183.274643 
	C271.371216,190.349091 271.303284,197.426224 271.215332,204.502853 
	C272.198425,204.299057 273.181549,204.095261 274.202179,203.013107 
z"/>
<path fill="#151515" opacity="1.000000" stroke="none" 
	d="
M297.523773,124.000244 
	C297.523743,132.329041 297.537781,140.157852 297.519562,147.986603 
	C297.503876,154.717163 295.047119,157.923157 289.897949,158.004654 
	C284.487122,158.090286 282.005371,154.901047 281.996582,147.729706 
	C281.977814,132.405273 282.015717,117.080750 281.979462,101.756386 
	C281.961609,94.211411 279.212585,88.252892 272.054504,84.802277 
	C261.684448,79.803307 249.610611,86.108025 248.018951,97.557983 
	C247.494568,101.330208 247.240982,105.166908 247.214066,108.976601 
	C247.118759,122.468109 247.230789,135.961029 247.145966,149.452682 
	C247.112717,154.739395 244.050461,158.072479 239.574646,158.129562 
	C235.076141,158.186951 232.372818,155.481110 231.733231,150.235931 
	C231.592758,149.083954 231.487610,147.919006 231.486908,146.759964 
	C231.472824,123.273582 231.334610,99.785294 231.650726,76.303169 
	C231.691528,73.271690 233.322571,69.320824 235.585693,67.464287 
	C239.749023,64.048927 243.304398,65.782684 247.501312,72.047081 
	C263.049103,63.719460 277.035950,66.394234 289.528564,78.215927 
	C293.664001,75.471931 297.492889,72.130516 301.926300,70.126312 
	C322.712097,60.729702 347.760986,75.880661 347.547424,100.968185 
	C347.411285,116.957756 347.551697,132.949509 347.506714,148.940109 
	C347.490265,154.781631 344.797729,157.904465 339.942871,158.003906 
	C335.160706,158.101837 332.030914,154.512802 332.010529,148.586685 
	C331.954956,132.429565 332.048645,116.271858 331.966278,100.114975 
	C331.926117,92.239021 327.323181,86.209328 319.816681,83.745697 
	C313.121124,81.548203 304.703735,83.965958 301.005035,90.325768 
	C298.873871,93.990242 298.004913,98.698608 297.664581,103.023415 
	C297.130493,109.810692 297.523438,116.670914 297.523773,124.000244 
z"/>
<path fill="#131313" opacity="1.000000" stroke="none" 
	d="
M723.614136,140.347260 
	C709.740967,122.456268 710.980469,97.366982 726.683411,81.397812 
	C742.231262,65.586365 766.845337,61.316277 788.770691,77.885956 
	C788.889282,76.796341 788.940796,75.901772 789.089844,75.023758 
	C789.940063,70.014206 792.912537,67.247948 797.257202,67.390862 
	C801.811523,67.540665 804.781494,70.733887 804.799683,76.152519 
	C804.881409,100.472420 804.880371,124.792892 804.799927,149.112793 
	C804.781982,154.531830 801.796753,157.899658 797.403259,158.112122 
	C792.390869,158.354538 789.812073,155.363373 788.665955,147.520645 
	C777.164978,156.351364 764.443359,160.049042 750.293213,157.092484 
	C739.537415,154.845139 730.665833,149.319412 723.614136,140.347260 
M787.766907,121.140190 
	C788.158752,119.025711 788.750854,116.926117 788.909241,114.794296 
	C789.798828,102.822693 782.989990,91.087288 772.265686,85.908821 
	C761.251160,80.590225 747.423340,82.896599 738.520447,91.537247 
	C730.189880,99.622429 727.452209,112.812035 731.841736,123.714035 
	C736.397644,135.029251 747.575684,142.649948 759.342773,142.463120 
	C772.594604,142.252747 782.544189,134.996277 787.766907,121.140190 
z"/>
<path fill="#121212" opacity="1.000000" stroke="none" 
	d="
M552.498596,144.499786 
	C540.543579,130.940277 536.424988,116.032967 541.835083,98.676544 
	C550.752991,70.066353 586.275391,58.069016 610.703064,75.617302 
	C611.632080,76.284683 612.681396,76.784477 613.655884,77.351448 
	C613.970459,76.981140 614.365112,76.728645 614.350586,76.502464 
	C613.965759,70.517601 618.815063,67.209724 622.709412,67.283478 
	C627.558228,67.375298 630.159485,71.097031 630.162476,77.662369 
	C630.173279,101.483330 630.195862,125.304359 630.145935,149.125214 
	C630.134399,154.638596 627.418274,157.825027 622.882996,158.080566 
	C618.323364,158.337463 615.682922,155.737549 614.689636,150.033539 
	C614.580627,149.407440 614.394043,148.794876 614.168762,147.869156 
	C592.737488,162.352219 572.269775,161.894302 552.498596,144.499786 
M555.007446,113.363770 
	C556.488953,118.223015 557.269470,123.449875 559.587891,127.870186 
	C565.685913,139.497055 580.258484,145.026688 592.898010,141.196091 
	C606.513123,137.069855 615.457275,124.676178 614.403442,111.396545 
	C613.249878,96.860054 603.141846,85.721436 589.748169,83.360252 
	C574.179810,80.615700 555.666992,92.467072 555.007446,113.363770 
z"/>
<path fill="#131313" opacity="1.000000" stroke="none" 
	d="
M381.897369,147.073273 
	C370.495941,137.509796 365.146301,125.442657 365.748505,111.048683 
	C366.501831,93.043129 375.551147,79.923515 391.428436,71.934120 
	C412.397156,61.382759 438.276031,69.238777 449.904144,89.995041 
	C460.435791,108.794106 458.482574,128.217453 443.626953,144.034714 
	C426.717194,162.039093 399.567108,162.659760 381.897369,147.073273 
M424.174377,86.275978 
	C413.287781,80.961784 402.825195,81.863922 393.261322,89.144569 
	C383.571564,96.521019 379.746613,106.515633 381.876495,118.591454 
	C384.203033,131.782135 396.582123,142.016449 410.605316,142.464096 
	C424.060272,142.893585 436.436707,133.358505 439.822784,119.954269 
	C443.080841,107.057098 436.593262,92.703209 424.174377,86.275978 
z"/>
<path fill="#171818" opacity="1.000000" stroke="none" 
	d="
M170.072723,157.840240 
	C147.355179,154.882523 135.824554,141.740463 135.815796,119.277542 
	C135.810455,105.613594 135.715088,91.948242 135.906662,78.286980 
	C135.941605,75.795120 136.466507,72.647057 138.031738,71.021202 
	C139.686386,69.302483 143.010193,68.064621 145.315720,68.431900 
	C147.402435,68.764313 149.608765,71.250084 150.808517,73.335190 
	C151.783768,75.030182 151.490646,77.536705 151.511795,79.685783 
	C151.657593,94.507111 151.909073,109.330627 151.775574,124.150269 
	C151.695770,133.009613 160.953796,141.855164 169.884125,142.017532 
	C180.265213,142.206268 188.642563,135.367737 190.015320,125.195938 
	C190.325699,122.896042 190.439346,120.554268 190.445862,118.231209 
	C190.484619,104.400734 190.422104,90.569885 190.487411,76.739609 
	C190.512695,71.387405 193.551224,67.988327 197.993408,67.995415 
	C202.519592,68.002640 205.890442,71.229095 205.914383,76.410507 
	C205.989044,92.566803 206.531937,108.768982 205.539078,124.869865 
	C204.328217,144.506409 190.276062,157.070419 170.072723,157.840240 
z"/>
<path fill="#161616" opacity="1.000000" stroke="none" 
	d="
M69.649147,157.988129 
	C64.570023,156.501007 62.939140,153.225159 62.947487,148.504684 
	C63.018143,108.541237 62.972565,68.577599 63.003223,28.614050 
	C63.008305,21.992428 66.189537,18.496407 71.536453,18.977797 
	C75.313774,19.317873 77.626114,21.352118 78.162880,25.127098 
	C78.442123,27.091032 78.513527,29.098221 78.514656,31.085964 
	C78.534515,66.220596 78.529060,101.355240 78.529076,136.489883 
	C78.529076,138.432968 78.529076,140.376068 78.529076,142.819275 
	C90.763321,142.819275 102.375740,142.818359 113.988159,142.819580 
	C121.951447,142.820419 125.742744,145.165390 125.928391,150.200302 
	C126.120033,155.397888 122.003136,158.191299 114.036110,158.174026 
	C99.385071,158.142273 84.734116,158.070328 69.649147,157.988129 
z"/>
<path fill="#131414" opacity="1.000000" stroke="none" 
	d="
M527.375061,79.767906 
	C528.239380,81.949440 529.763977,84.013069 529.382690,85.626144 
	C528.710815,88.467941 527.492615,91.933350 525.324951,93.421837 
	C523.697510,94.539375 520.103516,93.314934 517.620361,92.454277 
	C516.289795,91.993134 515.308777,90.193504 514.427002,88.831535 
	C512.082825,85.210724 509.690613,81.946335 504.539276,82.973602 
	C499.947449,83.889305 495.412659,88.010750 494.427155,92.778694 
	C493.993896,94.875107 493.868378,97.066154 493.862549,99.214951 
	C493.818329,115.540695 493.788605,131.866867 493.871155,148.192322 
	C493.893524,152.613098 492.570831,156.192215 488.225677,157.708405 
	C482.770752,159.611801 478.049805,155.565857 478.019104,149.037506 
	C477.946228,133.544922 477.995728,118.051773 477.995758,102.558853 
	C477.995758,94.062737 478.063568,85.565865 477.967865,77.070824 
	C477.918304,72.671761 479.116302,69.272255 483.695160,67.738052 
	C488.203491,66.227493 490.863220,68.743408 493.308228,71.883942 
	C506.856140,63.514450 519.771667,66.400482 527.375061,79.767906 
z"/>
<path fill="#121212" opacity="1.000000" stroke="none" 
	d="
M836.835876,144.902573 
	C836.837341,121.753792 836.872864,99.090675 836.805847,76.427856 
	C836.795044,72.777969 837.763916,69.407188 841.197144,68.279160 
	C843.519104,67.516266 847.063171,67.732681 848.927185,69.079628 
	C850.829590,70.454308 852.027527,73.667549 852.321594,76.215759 
	C852.853088,80.820969 852.487061,85.530304 852.487549,90.196152 
	C852.489563,108.859818 852.497803,127.523499 852.473389,146.187134 
	C852.471008,148.009399 852.403870,149.854385 852.117188,151.648956 
	C851.435669,155.914612 848.591492,158.086319 844.510437,158.041122 
	C840.364929,157.995224 837.693176,155.541000 837.032959,151.372177 
	C836.723206,149.416214 836.886841,147.385284 836.835876,144.902573 
z"/>
<path fill="#131313" opacity="1.000000" stroke="none" 
	d="
M849.634583,35.953239 
	C854.764404,40.083332 856.009155,43.885300 854.078369,48.592018 
	C852.290222,52.950962 848.039734,55.509750 843.450989,54.989571 
	C838.918335,54.475758 835.513123,51.142490 834.476013,46.490158 
	C832.956299,39.672794 840.149841,31.739883 849.634583,35.953239 
z"/>
<path fill="#6E72A6" opacity="1.000000" stroke="none" 
	d="
M639.924683,193.184814 
	C639.326355,196.144623 638.726868,198.694794 638.049377,201.576889 
	C638.738403,202.420975 639.663086,203.553802 640.555481,204.647034 
	C640.295471,205.041489 640.022217,205.524750 639.982666,205.506317 
	C636.036194,203.668030 632.270264,205.278137 628.361267,205.814804 
	C622.667786,206.596451 617.250977,202.231384 615.912842,196.525528 
	C614.587219,190.873398 617.633911,185.045532 623.113281,182.752304 
	C628.822998,180.362656 634.797607,182.095291 637.849121,187.255310 
	C638.834473,188.921478 639.248352,190.925613 639.924683,193.184814 
M632.123962,200.809540 
	C631.504272,198.059448 626.404968,197.374817 628.316040,192.678558 
	C630.884338,194.840851 632.947754,196.578094 635.777588,198.960556 
	C636.112915,196.128540 636.742004,194.196899 636.479370,192.395233 
	C635.708679,187.108444 630.602234,183.869843 625.454529,185.101227 
	C620.808960,186.212479 617.799438,191.747681 619.287109,196.444565 
	C621.024719,201.930481 626.000183,203.933533 632.123962,200.809540 
z"/>
<path fill="#7276A8" opacity="1.000000" stroke="none" 
	d="
M307.249512,182.552612 
	C308.325256,183.578537 309.607269,184.754089 309.660065,185.982452 
	C309.888672,191.300674 309.854614,196.637405 309.686462,201.960144 
	C309.647125,203.205826 308.710846,204.423187 308.187225,205.653564 
	C306.994720,204.931259 305.421753,204.481598 304.675171,203.439758 
	C301.342072,198.788361 298.244904,193.967896 294.320953,188.099442 
	C293.462189,194.823975 294.568665,200.445007 293.527832,205.723022 
	C292.843109,205.650970 292.158356,205.578903 291.473633,205.506851 
	C291.473633,197.895721 291.473633,190.284592 291.473633,180.919846 
	C298.405884,185.881317 300.467957,193.503662 305.831238,198.874100 
	C306.210571,193.089767 306.550323,187.908173 307.249512,182.552612 
z"/>
<path fill="#6C70A4" opacity="1.000000" stroke="none" 
	d="
M338.417175,185.177444 
	C332.688660,183.604172 328.148132,187.510757 327.194977,192.106522 
	C326.360016,196.132324 328.819794,200.554916 332.721375,202.147934 
	C338.739380,204.605103 343.353302,200.935532 342.514252,194.359406 
	C340.406494,193.608383 338.298737,192.857376 336.190979,192.106369 
	C338.557587,191.604797 340.916656,191.061844 343.295929,190.630066 
	C343.908173,190.518967 344.583923,190.757812 345.179352,190.829712 
	C347.248871,199.656464 346.289246,202.495651 340.482971,204.971817 
	C335.032288,207.296341 328.971313,205.359528 325.734955,200.259094 
	C322.591431,195.304993 323.513580,188.840912 327.925262,184.905167 
	C332.883484,180.481827 338.175171,180.592148 343.634613,186.591843 
	C342.027252,186.150635 340.419891,185.709427 338.417175,185.177444 
z"/>
<path fill="#6B6EA3" opacity="1.000000" stroke="none" 
	d="
M181.275055,182.247986 
	C186.984818,180.954880 191.542206,182.271118 194.655533,186.928680 
	C197.437180,191.090088 197.965302,195.607452 195.110687,199.976303 
	C192.397095,204.129288 188.583527,206.462646 183.405716,205.851044 
	C177.932632,205.204575 173.529099,200.943588 172.751022,195.595306 
	C171.923416,189.906525 174.859497,185.168716 181.275055,182.247986 
M182.326691,202.382324 
	C186.592773,203.675476 190.317490,202.182510 191.982742,198.509796 
	C193.172073,195.886780 193.558228,191.565460 192.140991,189.450684 
	C190.561859,187.094254 186.364410,184.999832 183.621140,185.338501 
	C180.909988,185.673203 177.423553,188.725189 176.360001,191.410187 
	C174.524673,196.043625 176.773026,200.077713 182.326691,202.382324 
z"/>
<path fill="#777BAB" opacity="1.000000" stroke="none" 
	d="
M445.187958,182.215851 
	C448.778717,182.215942 451.905701,182.215942 455.032715,182.215942 
	C455.224731,182.618607 455.416779,183.021255 455.608795,183.423920 
	C454.729858,184.107971 453.917450,185.242325 452.958313,185.384109 
	C450.838379,185.697464 448.606812,185.282883 446.497803,185.631348 
	C445.532318,185.790894 444.748749,187.051056 443.882660,187.812073 
	C444.789734,188.700699 445.581970,190.149292 446.627350,190.363678 
	C448.944427,190.838821 451.388611,190.694458 453.780945,190.802719 
	C453.872711,191.467239 453.964447,192.131775 454.056213,192.796295 
	C450.872406,193.304977 447.688599,193.813644 444.145203,194.379761 
	C444.145203,196.710678 444.145203,199.116470 444.145203,202.532501 
	C447.080780,202.532501 449.986450,202.431061 452.875702,202.603760 
	C453.599335,202.647003 454.270325,203.571686 454.965515,204.091248 
	C454.292145,204.646439 453.639587,205.648956 452.941925,205.681335 
	C449.454407,205.843292 445.941681,205.912903 442.469696,205.627380 
	C441.658417,205.560669 440.355621,204.005875 440.326416,203.101898 
	C440.132996,197.115677 440.281616,191.119461 440.202850,185.128036 
	C440.156219,181.585175 442.664368,182.321320 445.187958,182.215851 
z"/>
<path fill="#777BAB" opacity="1.000000" stroke="none" 
	d="
M701.034485,182.279770 
	C701.009338,183.369766 700.740723,185.210083 700.153076,185.318283 
	C698.061340,185.703400 695.808167,185.226578 693.723816,185.631149 
	C692.657593,185.838074 691.820129,187.223526 690.879272,188.076355 
	C691.871338,188.879028 692.765564,190.155960 693.875977,190.385193 
	C696.155640,190.855804 698.551086,190.765213 700.898865,190.905655 
	C700.955322,191.623962 701.011719,192.342255 701.068176,193.060562 
	C697.950745,193.429123 694.833252,193.797684 691.241699,194.222305 
	C691.241699,196.619827 691.241699,199.141144 691.241699,202.192398 
	C694.773499,202.398544 698.271790,202.602737 702.735352,202.863266 
	C701.489990,204.344940 700.957703,205.536377 700.406250,205.545319 
	C696.287903,205.611938 691.857666,206.270645 688.209656,204.909363 
	C686.906311,204.423035 687.276550,198.872833 687.254944,195.631500 
	C687.165100,182.165237 687.217224,182.164886 701.034485,182.279770 
z"/>
<path fill="#7074A7" opacity="1.000000" stroke="none" 
	d="
M472.328491,204.006073 
	C470.519958,206.371857 469.358978,205.838440 469.313995,203.425186 
	C469.187469,196.635406 469.269806,189.841721 469.269806,182.400360 
	C474.113892,182.659073 479.318054,180.189835 482.133698,185.357330 
	C483.232239,187.373474 481.648285,190.851227 481.286133,193.663239 
	C480.714996,193.675476 480.143829,193.687714 479.572693,193.699936 
	C482.181793,197.449829 484.790894,201.199707 487.399963,204.949600 
	C487.162537,205.270309 486.925110,205.591019 486.687683,205.911743 
	C485.496765,205.224594 484.011292,204.787842 483.172516,203.801300 
	C481.025574,201.276093 479.257446,198.430893 477.142883,195.874924 
	C476.399261,194.976089 475.088562,194.546402 474.036804,193.902512 
	C473.506531,194.976608 472.651642,196.011368 472.515686,197.133240 
	C472.257202,199.266449 472.409790,201.449493 472.328491,204.006073 
M475.454315,185.138367 
	C471.432159,185.122360 471.879211,187.397003 473.094879,191.097336 
	C475.540955,190.060699 477.725830,189.134750 479.910706,188.208786 
	C478.699860,187.188629 477.488983,186.168457 475.454315,185.138367 
z"/>
<path fill="#7074A7" opacity="1.000000" stroke="none" 
	d="
M724.901245,196.902954 
	C723.445374,195.697556 722.198425,194.813782 720.951477,193.930023 
	C720.447327,195.354965 719.700806,196.745636 719.493469,198.212509 
	C719.147766,200.658585 719.147095,203.153442 718.947693,206.534103 
	C715.957031,203.276825 715.431213,195.396606 716.545593,183.234833 
	C722.211487,181.253036 727.293274,181.988647 729.164124,185.164352 
	C731.378845,188.923798 729.400085,191.390884 726.276489,193.517715 
	C728.959045,197.297226 731.606506,201.027206 734.253967,204.757172 
	C728.673950,204.900253 728.119812,199.706848 724.901245,196.902954 
M722.381042,185.154297 
	C721.316528,186.203629 720.252014,187.252945 719.187439,188.302261 
	C720.266785,188.976212 721.406738,190.275955 722.411377,190.178635 
	C723.948608,190.029709 725.392517,188.917358 726.876038,188.213928 
	C725.648560,187.211258 724.421143,186.208588 722.381042,185.154297 
z"/>
<path fill="#6C6FA4" opacity="1.000000" stroke="none" 
	d="
M382.058167,197.107346 
	C382.133820,199.044052 382.211670,200.510117 382.302521,202.221573 
	C386.249329,202.528015 389.967987,202.816742 393.686615,203.105484 
	C393.660156,203.719528 393.633667,204.333588 393.607178,204.947632 
	C388.938202,204.947632 384.269226,204.947632 379.252686,204.947632 
	C379.252686,197.793182 379.252686,190.395462 379.252686,182.298279 
	C383.407990,182.298279 387.510162,182.227310 391.605499,182.363022 
	C392.351837,182.387756 393.070251,183.255997 393.801575,183.734833 
	C392.982361,184.288757 392.213287,185.198044 391.333466,185.322113 
	C389.540039,185.575073 387.678986,185.515533 385.860046,185.385483 
	C382.314697,185.131958 381.407837,186.715073 382.609955,190.333923 
	C385.666016,190.505768 388.856934,190.685196 392.047821,190.864624 
	C392.161774,191.477249 392.275726,192.089890 392.389679,192.702515 
	C390.567169,193.042053 388.748596,193.404480 386.921143,193.714981 
	C384.910950,194.056519 381.828400,192.575607 382.058167,197.107346 
z"/>
<path fill="#6D71A5" opacity="1.000000" stroke="none" 
	d="
M144.487442,192.386154 
	C142.181473,188.689117 142.736908,185.797180 146.056503,183.537415 
	C149.769836,181.009613 153.906158,181.736359 158.928162,186.507568 
	C156.892960,186.507568 155.816238,186.639175 154.786255,186.475937 
	C153.331787,186.245422 151.779678,185.263748 150.511139,185.578308 
	C148.972519,185.959854 147.685791,187.357300 146.290085,188.315201 
	C147.301682,189.462112 148.118195,190.957397 149.377228,191.662476 
	C150.763275,192.438660 152.644516,192.274963 154.153137,192.899597 
	C157.211197,194.165741 159.684448,196.046112 159.185867,199.921204 
	C158.668991,203.938660 155.748337,205.893768 152.307434,205.743362 
	C148.948074,205.596512 145.651886,204.004608 142.327957,203.047073 
	C142.368835,202.407104 142.409714,201.767136 142.450592,201.127167 
	C143.472305,200.902237 144.536301,200.392334 145.503326,200.535873 
	C146.395813,200.668381 147.125565,201.788483 148.029373,201.973587 
	C150.877060,202.556778 154.515213,203.939316 155.781281,200.159348 
	C157.141174,196.099258 153.017593,196.163803 150.616776,195.135849 
	C148.666550,194.300827 146.709366,193.482010 144.487442,192.386154 
z"/>
<path fill="#6E71A5" opacity="1.000000" stroke="none" 
	d="
M426.883698,183.416290 
	C424.477173,190.279602 422.097382,196.811920 419.505005,203.258759 
	C419.102356,204.260086 417.817200,205.072693 416.750732,205.544205 
	C416.411133,205.694351 415.138367,204.586487 414.836060,203.835526 
	C412.076447,196.979904 409.436829,190.075943 406.706635,183.043015 
	C409.763184,182.908035 409.746735,182.914780 412.550781,189.749817 
	C413.839325,192.890793 415.206940,195.999344 417.133209,200.516846 
	C419.284393,194.901215 420.808960,190.446625 422.726868,186.168365 
	C423.410858,184.642609 423.342438,181.215790 426.883698,183.416290 
z"/>
<path fill="#6E71A5" opacity="1.000000" stroke="none" 
	d="
M246.872375,205.617645 
	C245.865692,205.222778 244.859985,204.929504 244.614563,204.326675 
	C241.758698,197.312378 239.017487,190.251404 236.170227,183.010345 
	C239.559967,182.943085 239.542923,182.949600 242.341034,190.261536 
	C243.577866,193.493607 244.899597,196.693192 246.332993,200.283768 
	C250.154434,194.298904 250.461975,186.922638 255.080597,181.935135 
	C255.795059,182.274231 256.509521,182.613327 257.223999,182.952408 
	C253.891495,190.493423 250.559006,198.034424 246.872375,205.617645 
z"/>
<path fill="#6A6DA3" opacity="1.000000" stroke="none" 
	d="
M558.446655,185.657623 
	C561.074646,192.305237 563.553345,198.606735 566.032043,204.908249 
	C565.618835,205.238068 565.205688,205.567886 564.792480,205.897705 
	C563.807190,204.824860 562.190491,203.876083 561.950928,202.656738 
	C561.115173,198.402802 558.101562,199.016357 555.097656,198.848083 
	C552.130920,198.681870 550.473145,199.612778 549.665283,202.575180 
	C549.330017,203.804535 548.000610,204.762833 547.123291,205.844391 
	C546.590088,205.546295 546.056885,205.248199 545.523682,204.950089 
	C548.336426,197.824188 550.737427,190.492035 554.155029,183.669113 
	C555.619446,180.745514 557.709656,182.594284 558.446655,185.657623 
M558.018860,192.567581 
	C557.375305,191.024948 556.731750,189.482300 555.673218,186.944885 
	C554.264221,190.562027 553.332153,192.954803 551.941406,196.525253 
	C554.623596,194.841080 558.309937,198.804413 558.018860,192.567581 
z"/>
<path fill="#6C6FA4" opacity="1.000000" stroke="none" 
	d="
M668.928162,196.354141 
	C669.044556,191.382797 669.148132,186.850662 669.251709,182.318527 
	C669.986572,182.374451 670.721497,182.430389 671.456421,182.486313 
	C671.794617,188.982300 673.692566,195.752686 670.051941,201.799149 
	C668.757690,203.948608 664.801697,205.645645 662.171204,205.503723 
	C659.738281,205.372437 655.844788,202.843140 655.412292,200.779419 
	C654.241333,195.191757 654.532288,189.291168 654.386414,183.511078 
	C654.377319,183.152084 655.603271,182.761902 657.210205,181.835083 
	C657.210205,186.724426 657.347778,190.808289 657.171021,194.878464 
	C656.998840,198.842148 658.157532,202.112427 662.293945,202.743866 
	C666.351990,203.363327 668.129028,200.376892 668.928162,196.354141 
z"/>
<path fill="#6E72A6" opacity="1.000000" stroke="none" 
	d="
M210.574341,194.020660 
	C210.576523,190.884354 210.409882,188.218658 210.655350,185.591461 
	C210.767410,184.392151 211.692368,183.268784 212.248627,182.110977 
	C212.785034,182.253540 213.321442,182.396118 213.857849,182.538681 
	C213.857849,189.033127 213.857849,195.527573 213.857849,202.167908 
	C218.590057,202.512268 222.627686,202.806076 226.665329,203.099884 
	C226.650330,203.714935 226.635330,204.329971 226.620331,204.945023 
	C221.474548,204.945023 216.328766,204.945023 210.573807,204.945023 
	C210.573807,201.705109 210.573807,198.106049 210.574341,194.020660 
z"/>
<path fill="#767AAB" opacity="1.000000" stroke="none" 
	d="
M505.230225,205.466354 
	C504.774872,205.155304 504.605560,205.025162 504.595123,204.883362 
	C504.306824,200.951126 504.799316,196.750443 503.544373,193.159744 
	C502.294037,189.582291 499.293365,186.616592 497.520050,182.814682 
	C502.499695,182.303314 502.726990,188.277481 506.225403,189.731934 
	C509.526398,188.039642 509.649139,182.295410 515.702454,182.386551 
	C514.484070,184.257370 513.895386,185.381592 513.104309,186.338455 
	C509.314362,190.922699 506.666687,195.804810 507.654541,202.117157 
	C507.817596,203.158844 506.320312,204.460373 505.230225,205.466354 
z"/>
<path fill="#767AAB" opacity="1.000000" stroke="none" 
	d="
M752.230957,205.463135 
	C751.576111,197.128052 750.583862,189.204956 743.213257,183.271942 
	C745.717041,182.824051 746.814453,183.661407 752.971924,189.676056 
	C756.691101,188.408279 756.541382,182.155350 762.401367,182.396332 
	C761.652954,183.817749 761.353027,184.741684 760.773682,185.430618 
	C756.723511,190.247086 753.557678,195.294052 754.649780,202.082565 
	C754.818298,203.130219 753.318909,204.446167 752.230957,205.463135 
z"/>
<path fill="#676AA1" opacity="1.000000" stroke="none" 
	d="
M580.100281,196.930359 
	C580.493286,191.795685 579.238281,186.862732 581.634583,182.556290 
	C584.278198,189.988876 583.464966,203.670532 580.100220,206.192291 
	C580.100220,202.800629 580.100220,200.107742 580.100281,196.930359 
z"/>
<path fill="#6B6EA3" opacity="1.000000" stroke="none" 
	d="
M274.183411,203.452286 
	C273.181549,204.095261 272.198425,204.299057 271.215332,204.502853 
	C271.303284,197.426224 271.371216,190.349091 271.546631,183.274643 
	C271.554291,182.965134 272.547211,182.680084 274.202179,181.761353 
	C274.202179,189.393692 274.202179,196.203400 274.183411,203.452286 
z"/>
<path fill="#E6F3F1" opacity="1.000000" stroke="none" 
	d="
M787.645630,121.524925 
	C782.544189,134.996277 772.594604,142.252747 759.342773,142.463120 
	C747.575684,142.649948 736.397644,135.029251 731.841736,123.714035 
	C727.452209,112.812035 730.189880,99.622429 738.520447,91.537247 
	C747.423340,82.896599 761.251160,80.590225 772.265686,85.908821 
	C782.989990,91.087288 789.798828,102.822693 788.909241,114.794296 
	C788.750854,116.926117 788.158752,119.025711 787.645630,121.524925 
z"/>
<path fill="#E5F2F1" opacity="1.000000" stroke="none" 
	d="
M555.010376,112.914566 
	C555.666992,92.467072 574.179810,80.615700 589.748169,83.360252 
	C603.141846,85.721436 613.249878,96.860054 614.403442,111.396545 
	C615.457275,124.676178 606.513123,137.069855 592.898010,141.196091 
	C580.258484,145.026688 565.685913,139.497055 559.587891,127.870186 
	C557.269470,123.449875 556.488953,118.223015 555.010376,112.914566 
z"/>
<path fill="#E5F2F0" opacity="1.000000" stroke="none" 
	d="
M424.482727,86.486130 
	C436.593262,92.703209 443.080841,107.057098 439.822784,119.954269 
	C436.436707,133.358505 424.060272,142.893585 410.605316,142.464096 
	C396.582123,142.016449 384.203033,131.782135 381.876495,118.591454 
	C379.746613,106.515633 383.571564,96.521019 393.261322,89.144569 
	C402.825195,81.863922 413.287781,80.961784 424.482727,86.486130 
z"/>
<path fill="#E6F2F2" opacity="1.000000" stroke="none" 
	d="
M632.077881,201.192444 
	C626.000183,203.933533 621.024719,201.930481 619.287109,196.444565 
	C617.799438,191.747681 620.808960,186.212479 625.454529,185.101227 
	C630.602234,183.869843 635.708679,187.108444 636.479370,192.395233 
	C636.742004,194.196899 636.112915,196.128540 635.777588,198.960556 
	C632.947754,196.578094 630.884338,194.840851 628.316040,192.678558 
	C626.404968,197.374817 631.504272,198.059448 632.077881,201.192444 
z"/>
<path fill="#E5F2F2" opacity="1.000000" stroke="none" 
	d="
M181.949554,202.304245 
	C176.773026,200.077713 174.524673,196.043625 176.360001,191.410187 
	C177.423553,188.725189 180.909988,185.673203 183.621140,185.338501 
	C186.364410,184.999832 190.561859,187.094254 192.140991,189.450684 
	C193.558228,191.565460 193.172073,195.886780 191.982742,198.509796 
	C190.317490,202.182510 186.592773,203.675476 181.949554,202.304245 
z"/>
<path fill="#D2DDE5" opacity="1.000000" stroke="none" 
	d="
M475.866211,185.143326 
	C477.488983,186.168457 478.699860,187.188629 479.910706,188.208801 
	C477.725830,189.134750 475.540955,190.060699 473.094879,191.097336 
	C471.879211,187.397003 471.432159,185.122360 475.866211,185.143326 
z"/>
<path fill="#D2DDE5" opacity="1.000000" stroke="none" 
	d="
M722.787354,185.180099 
	C724.421143,186.208588 725.648560,187.211258 726.876038,188.213943 
	C725.392517,188.917358 723.948608,190.029709 722.411377,190.178635 
	C721.406738,190.275955 720.266785,188.976212 719.187439,188.302261 
	C720.252014,187.252945 721.316528,186.203629 722.787354,185.180099 
z"/>
<path fill="#D8E4E9" opacity="1.000000" stroke="none" 
	d="
M558.109314,192.944717 
	C558.309937,198.804413 554.623596,194.841080 551.941406,196.525253 
	C553.332153,192.954803 554.264221,190.562027 555.673218,186.944885 
	C556.731750,189.482300 557.375305,191.024948 558.109314,192.944717 
z"/>
</svg>